<svg width="151" height="114" viewBox="0 0 151 114" fill="none" xmlns="http://www.w3.org/2000/svg">
<path d="M2 111.215H63V44H2V111.215Z" fill="white"/>
<path d="M10 97H30V101H10V97Z" fill="#6E6E6E"/>
<path d="M34 97H55V101H34V97Z" fill="#6E6E6E"/>
<path d="M10 90H19V94H10V90Z" fill="#6E6E6E"/>
<path d="M23 90H39V94H23V90Z" fill="#6E6E6E"/>
<path d="M43 90H55V94H43V90Z" fill="#6E6E6E"/>
<path d="M10 83H35V87H10V83Z" fill="#6E6E6E"/>
<path d="M39 83H43V87H39V83Z" fill="#6E6E6E"/>
<path d="M47 83H55V87H47V83Z" fill="#6E6E6E"/>
<path d="M10 76H14V80H10V76Z" fill="#6E6E6E"/>
<path d="M18 76H22V80H18V76Z" fill="#6E6E6E"/>
<path d="M26 76H34V80H26V76Z" fill="#6E6E6E"/>
<path d="M38 76H46V80H38V76Z" fill="#6E6E6E"/>
<path d="M50 76H55V80H50V76Z" fill="#6E6E6E"/>
<path d="M10 62H19V66H10V62Z" fill="#6E6E6E"/>
<path d="M23 62H27V66H23V62Z" fill="#6E6E6E"/>
<path d="M31 62H55V66H31V62Z" fill="#6E6E6E"/>
<path d="M10 69H27V73H10V69Z" fill="#6E6E6E"/>
<path d="M31 69H35V73H31V69Z" fill="#6E6E6E"/>
<path d="M39 69H55V73H39V69Z" fill="#6E6E6E"/>
<path d="M10 55H14V59H10V55Z" fill="#6E6E6E"/>
<path d="M18 55H55V59H18V55Z" fill="#6E6E6E"/>
<path d="M111 2H50V69.2153H111V2Z" fill="white"/>
<path d="M61.8395 54.4546H58.4146V57.8795H61.8395V54.4546Z" fill="#FFEB74"/>
<path d="M61.8395 47.5998H58.4146V51.0248H61.8395V47.5998Z" fill="#3E3A43"/>
<path d="M61.8395 40.7451H58.4146V44.17H61.8395V40.7451Z" fill="#FFD800"/>
<path d="M61.8395 33.8952H58.4146V37.3201H61.8395V33.8952Z" fill="#FFD500"/>
<path d="M61.8395 27.0404H58.4146V30.4654H61.8395V27.0404Z" fill="#FFEB74"/>
<path d="M61.8395 20.1857H58.4146V23.6106H61.8395V20.1857Z" fill="#3E3A43"/>
<path d="M61.8395 13.3309H58.4146V16.7559H61.8395V13.3309Z" fill="#FFEB74"/>
<path d="M75.549 54.4546H72.124V57.8795H75.549V54.4546Z" fill="#FFEB74"/>
<path d="M75.549 47.5998H72.124V51.0248H75.549V47.5998Z" fill="#3E3A43"/>
<path d="M75.549 40.7451H72.124V44.17H75.549V40.7451Z" fill="#FFD800"/>
<path d="M75.549 33.8952H72.124V37.3201H75.549V33.8952Z" fill="#FFD500"/>
<path d="M75.549 27.0404H72.124V30.4654H75.549V27.0404Z" fill="#3E3A43"/>
<path d="M75.549 20.1857H72.124V23.6106H75.549V20.1857Z" fill="#3E3A43"/>
<path d="M75.549 13.3309H72.124V16.7559H75.549V13.3309Z" fill="#FFD800"/>
<path d="M68.6944 54.4546H65.2694V57.8795H68.6944V54.4546Z" fill="#FFD800"/>
<path d="M68.6944 47.5998H65.2694V51.0248H68.6944V47.5998Z" fill="#FFD800"/>
<path d="M68.6944 40.7451H65.2694V44.17H68.6944V40.7451Z" fill="#3E3A43"/>
<path d="M68.6944 33.8952H65.2694V37.3201H68.6944V33.8952Z" fill="#6E6E6E"/>
<path d="M68.6944 27.0404H65.2694V30.4654H68.6944V27.0404Z" fill="#FFEB74"/>
<path d="M68.6944 20.1857H65.2694V23.6106H68.6944V20.1857Z" fill="#3E3A43"/>
<path d="M68.6944 13.3309H65.2694V16.7559H68.6944V13.3309Z" fill="#6E6E6E"/>
<path d="M82.3991 54.4546H78.9741V57.8795H82.3991V54.4546Z" fill="#3E3A43"/>
<path d="M82.3991 47.5998H78.9741V51.0248H82.3991V47.5998Z" fill="#6E6E6E"/>
<path d="M82.3991 40.7451H78.9741V44.17H82.3991V40.7451Z" fill="#FFD800"/>
<path d="M82.3991 33.8952H78.9741V37.3201H82.3991V33.8952Z" fill="#FFD800"/>
<path d="M82.3991 27.0404H78.9741V30.4654H82.3991V27.0404Z" fill="#FFEB74"/>
<path d="M82.3991 20.1857H78.9741V23.6106H82.3991V20.1857Z" fill="#FFD800"/>
<path d="M82.3991 13.3309H78.9741V16.7559H82.3991V13.3309Z" fill="#6E6E6E"/>
<path d="M96.1085 54.4546H92.6836V57.8795H96.1085V54.4546Z" fill="#FFEB74"/>
<path d="M96.1085 47.5998H92.6836V51.0248H96.1085V47.5998Z" fill="#6E6E6E"/>
<path d="M96.1085 40.7451H92.6836V44.17H96.1085V40.7451Z" fill="#FFEB74"/>
<path d="M96.1085 33.8952H92.6836V37.3201H96.1085V33.8952Z" fill="#3E3A43"/>
<path d="M96.1085 27.0404H92.6836V30.4654H96.1085V27.0404Z" fill="#FFD800"/>
<path d="M96.1085 20.1857H92.6836V23.6106H96.1085V20.1857Z" fill="#FFD800"/>
<path d="M96.1085 13.3309H92.6836V16.7559H96.1085V13.3309Z" fill="#6E6E6E"/>
<path d="M102.963 54.4546H99.5383V57.8795H102.963V54.4546Z" fill="#FFEB74"/>
<path d="M102.963 47.5998H99.5383V51.0248H102.963V47.5998Z" fill="#3E3A43"/>
<path d="M102.963 40.7451H99.5383V44.17H102.963V40.7451Z" fill="#FFD800"/>
<path d="M102.963 33.8952H99.5383V37.3201H102.963V33.8952Z" fill="#FFD500"/>
<path d="M102.963 27.0404H99.5383V30.4654H102.963V27.0404Z" fill="#FFEB74"/>
<path d="M102.963 20.1857H99.5383V23.6106H102.963V20.1857Z" fill="#3E3A43"/>
<path d="M102.963 13.3309H99.5383V16.7559H102.963V13.3309Z" fill="#FFD800"/>
<path d="M89.2537 54.4546H85.8287V57.8795H89.2537V54.4546Z" fill="#FFEB74"/>
<path d="M89.2537 47.5998H85.8287V51.0248H89.2537V47.5998Z" fill="#3E3A43"/>
<path d="M89.2537 40.7451H85.8287V44.17H89.2537V40.7451Z" fill="#3E3A43"/>
<path d="M89.2537 33.8952H85.8287V37.3201H89.2537V33.8952Z" fill="#FFD500"/>
<path d="M89.2537 27.0404H85.8287V30.4654H89.2537V27.0404Z" fill="#FFEB74"/>
<path d="M89.2537 20.1857H85.8287V23.6106H89.2537V20.1857Z" fill="#3E3A43"/>
<path d="M89.2537 13.3309H85.8287V16.7559H89.2537V13.3309Z" fill="#3E3A43"/>
<path d="M88 111.215H149V44H88V111.215Z" fill="white" stroke="#AAAAAA" stroke-width="4" stroke-miterlimit="10"/>
<path d="M96 97.2153H141V101.215H96V97.2153Z" fill="#FFEB74"/>
<path d="M96 90.2153H141V94.2153H96V90.2153Z" fill="#AAAAAA"/>
<path d="M96 83.2153H141V87.2153H96V83.2153Z" fill="#FFD800"/>
<path d="M96 76.2153H141V80.2153H96V76.2153Z" fill="#3E3A39"/>
<path d="M96 69.2153H141V73.2153H96V69.2153Z" fill="#FFEB74"/>
<path d="M96 62.2153H141V66.2153H96V62.2153Z" fill="#FFD800"/>
<path d="M96 55.2153H141V59.2153H96V55.2153Z" fill="#3E3A39"/>
<path d="M40 44H2V111.234H63V79" stroke="#AAAAAA" stroke-width="4"/>
<path d="M111 34V2H50V69H78" stroke="#AAAAAA" stroke-width="4"/>
</svg>
