<svg width="220" height="162" viewBox="0 0 220 162" fill="none" xmlns="http://www.w3.org/2000/svg">
<path d="M2 150.662C2 155.816 14.5329 160 29.9975 160C45.4621 160 58 155.816 58 150.662V132C58 137.16 45.4621 141.343 29.9975 141.343C14.5329 141.343 2 137.16 2 132V150.662Z" fill="#FFD800" stroke="#FFD800" stroke-width="4" stroke-miterlimit="10"/>
<path d="M2 131.663C2 136.819 14.5329 141 29.9975 141C45.4621 141 58 136.819 58 131.663V113C58 118.156 45.4621 122.332 29.9975 122.332C14.5329 122.332 2 118.156 2 113V131.663Z" fill="#3E3A39" stroke="#3E3A39" stroke-width="4" stroke-miterlimit="10"/>
<path d="M2 113.66C2 118.821 14.5329 123 29.9975 123C45.4621 123 58 118.821 58 113.66V95C58 100.161 45.4621 104.34 29.9975 104.34C14.5329 104.34 2 100.161 2 95V113.66Z" fill="#AAAAAA" stroke="#AAAAAA" stroke-width="4" stroke-miterlimit="10"/>
<path d="M30 104C45.464 104 58 99.7467 58 94.5C58 89.2533 45.464 85 30 85C14.536 85 2 89.2533 2 94.5C2 99.7467 14.536 104 30 104Z" fill="#C0C4C6" stroke="#C0C4C6" stroke-width="4" stroke-miterlimit="10"/>
<path d="M82 67.6617C82 72.8164 94.5329 77 109.998 77C125.462 77 138 72.8164 138 67.6617V49C138 54.1597 125.462 58.3433 109.998 58.3433C94.5329 58.3433 82 54.1597 82 49V67.6617Z" fill="#3E3A39" stroke="#3E3A39" stroke-width="4" stroke-miterlimit="10"/>
<path d="M82 48.6634C82 53.8194 94.5329 58 109.998 58C125.462 58 138 53.8194 138 48.6634V30C138 35.1561 125.462 39.3317 109.998 39.3317C94.5329 39.3317 82 35.1561 82 30V48.6634Z" fill="#AAAAAA" stroke="#AAAAAA" stroke-width="4" stroke-miterlimit="10"/>
<path d="M82 30.66C82 35.8207 94.5329 40 109.998 40C125.462 40 138 35.8207 138 30.66V12C138 17.1606 125.462 21.34 109.998 21.34C94.5329 21.34 82 17.1606 82 12V30.66Z" fill="#FFD800" stroke="#FFD800" stroke-width="4" stroke-miterlimit="10"/>
<path d="M110 21C125.464 21 138 16.7467 138 11.5C138 6.25329 125.464 2 110 2C94.536 2 82 6.25329 82 11.5C82 16.7467 94.536 21 110 21Z" fill="#FFEB74" stroke="#FFEB74" stroke-width="4" stroke-miterlimit="10"/>
<path d="M162 150.662C162 155.816 174.533 160 189.998 160C205.462 160 218 155.816 218 150.662V132C218 137.16 205.462 141.343 189.998 141.343C174.533 141.343 162 137.16 162 132V150.662Z" fill="#3E3A39" stroke="#3E3A39" stroke-width="4" stroke-miterlimit="10"/>
<path d="M162 131.663C162 136.819 174.533 141 189.998 141C205.462 141 218 136.819 218 131.663V113C218 118.156 205.462 122.332 189.998 122.332C174.533 122.332 162 118.156 162 113V131.663Z" fill="#FFD800" stroke="#FFD800" stroke-width="4" stroke-miterlimit="10"/>
<path d="M162 113.66C162 118.821 174.533 123 189.998 123C205.462 123 218 118.821 218 113.66V95C218 100.161 205.462 104.34 189.998 104.34C174.533 104.34 162 100.161 162 95V113.66Z" fill="#AAAAAA" stroke="#AAAAAA" stroke-width="4" stroke-miterlimit="10"/>
<path d="M190 104C205.464 104 218 99.7467 218 94.5C218 89.2533 205.464 85 190 85C174.536 85 162 89.2533 162 94.5C162 99.7467 174.536 104 190 104Z" fill="#C0C4C6" stroke="#C0C4C6" stroke-width="4" stroke-miterlimit="10"/>
<path d="M166 83L146 63" stroke="#AAAAAA" stroke-width="4" stroke-dasharray="4 10"/>
<path d="M55 84L76 63" stroke="#AAAAAA" stroke-width="4" stroke-dasharray="4 10"/>
<path d="M157.5 146L64.5 146" stroke="#AAAAAA" stroke-width="4" stroke-dasharray="4 10"/>
</svg>
