<svg width="231" height="71" viewBox="0 0 231 71" fill="none" xmlns="http://www.w3.org/2000/svg">
<rect x="154" y="17" width="75" height="52" fill="white"/>
<path d="M228.296 19.8245V21.2725H154.5V19.3361C154.5 18.8536 154.692 18.3907 155.033 18.0495C155.374 17.7082 155.837 17.5165 156.32 17.5165H225.988C226.291 17.5165 226.591 17.5762 226.871 17.6922C227.151 17.8082 227.405 17.9782 227.62 18.1925C227.834 18.4068 228.004 18.6613 228.12 18.9413C228.236 19.2213 228.296 19.5214 228.296 19.8245Z" fill="#AAAAAA" stroke="#AAAAAA"/>
<path d="M182 31H57" stroke="#AAAAAA" stroke-width="4" stroke-dasharray="4 10"/>
<path d="M182 59H57" stroke="#AAAAAA" stroke-width="4" stroke-dasharray="4 10"/>
<path d="M52.47 13H3.98001C1.78192 13 0 14.7819 0 16.98V65.47C0 67.6681 1.78192 69.45 3.98001 69.45H52.47C54.6681 69.45 56.45 67.6681 56.45 65.47V16.98C56.45 14.7819 54.6681 13 52.47 13Z" fill="#C0C4C6"/>
<path d="M16.7831 7.47197e-10H89.3304C90.3534 -2.16494e-06 91.3347 0.405858 92.0588 1.12852C92.783 1.85118 93.1909 2.83162 93.193 3.85467V52.2169C93.193 53.2202 92.7944 54.1825 92.0849 54.8919C91.3755 55.6014 90.4132 56 89.4099 56H16.7831C15.7797 56 14.8175 55.6014 14.1081 54.8919C13.3986 54.1825 13 53.2202 13 52.2169V3.75929C13.0063 2.76008 13.4076 1.80394 14.1164 1.09961C14.8252 0.395282 15.7839 -1.98451e-05 16.7831 7.47197e-10Z" fill="#3E3A43"/>
<path d="M28.5776 12.9547L22.1226 10.4254V8.5699L30.4624 12.2613V13.6871L22.1226 17.3883V15.5133L28.5776 12.9547ZM40.2476 20.7769H31.3022V19.3023H40.2476V20.7769Z" fill="white"/>
<path d="M154 25V21C154 18.7909 155.791 17 158 17H224.5C226.709 17 228.5 18.7909 228.5 21V65C228.5 67.2091 226.709 69 224.5 69H158C155.791 69 154 67.2091 154 65V65" stroke="#AAAAAA" stroke-width="4"/>
<path d="M154 53V37" stroke="#AAAAAA" stroke-width="4"/>
<path d="M199.698 42.7395C199.752 42.5399 199.806 42.3371 199.861 42.131L197.563 39.7346L197.995 39.0117C198.104 38.8234 198.222 38.6408 198.349 38.4646L198.831 37.745L201.939 38.8985C202.286 38.5623 202.662 38.2577 203.063 37.9884L202.57 34.6884L203.361 34.3621L203.943 34.1245L204.755 33.835L206.591 36.6045C207.093 36.5368 207.6 36.5201 208.105 36.5547L209.251 34.3666L209.746 33.64L210.77 33.9143L211.831 34.2402L211.695 37.5684C212.132 37.797 212.544 38.0671 212.929 38.3751L215.903 36.8945L216.462 37.5516L216.856 38.0506L217.369 38.7263L215.302 41.3404C215.511 41.7735 215.682 42.2245 215.811 42.688L219.078 43.2426L219.146 44.1097C219.162 44.321 219.166 44.5394 219.169 44.7578L219.192 45.6023L215.97 46.499C215.914 46.705 215.86 46.9079 215.807 47.1075C215.754 47.359 215.688 47.6074 215.607 47.8513L217.916 50.1679L217.463 50.8952C217.348 51.0922 217.226 51.2769 217.094 51.459L216.607 52.1567L213.551 51.0065C213.222 51.3161 212.869 51.5989 212.496 51.8523L212.994 55.0917L212.2 55.4276C211.99 55.5163 211.783 55.5953 211.556 55.6691L210.755 55.9515L208.825 53.1877C208.39 53.245 207.951 53.2693 207.512 53.2602L206.366 55.4484L205.881 56.1776L204.809 55.8903L203.65 55.5797L203.783 52.2612C203.399 52.0481 203.031 51.8077 202.682 51.5416L199.685 53.0267L199.133 52.3819C198.983 52.2071 198.834 52.0324 198.696 51.8506L198.176 51.1626L200.228 48.6065C200.031 48.2003 199.867 47.779 199.737 47.3466L196.438 46.7938L196.365 45.946L196.328 45.2735L196.298 44.4167L199.498 43.5245C199.586 43.2373 199.634 42.981 199.698 42.7395ZM205.417 44.2717C205.29 44.7421 205.307 45.2393 205.464 45.7004C205.62 46.1614 205.911 46.5655 206.297 46.8616C206.684 47.1576 207.15 47.3323 207.636 47.3634C208.122 47.3945 208.606 47.2807 209.027 47.0363C209.448 46.792 209.788 46.4281 210.002 45.9908C210.216 45.5535 210.296 45.0625 210.231 44.5799C210.166 44.0973 209.959 43.6448 209.636 43.2799C209.314 42.9149 208.891 42.6538 208.42 42.5297C208.108 42.4462 207.783 42.425 207.463 42.4675C207.144 42.5099 206.835 42.6151 206.556 42.7769C206.277 42.9388 206.033 43.1541 205.837 43.4107C205.642 43.6672 205.499 43.9598 205.417 44.2717V44.2717Z" fill="#FFD800"/>
<path d="M170.61 45C170.61 44.4536 170.658 43.9083 170.753 43.3703L167 41.1518C167.072 40.8933 167.151 40.6421 167.237 40.3908L171.552 40.7928C172.058 39.7195 172.755 38.7465 173.608 37.921L171.882 33.9292C172.084 33.7713 172.292 33.6133 172.508 33.4697L175.758 36.3415C176.815 35.7677 177.967 35.3906 179.159 35.2287L180.115 31H180.885L181.834 35.2287C183.023 35.3918 184.173 35.7688 185.228 36.3415L188.485 33.4697C188.701 33.6133 188.902 33.7713 189.111 33.9292L187.385 37.921C188.238 38.7465 188.935 39.7195 189.441 40.7928L193.756 40.3908C193.842 40.6421 193.921 40.8933 194 41.1518L190.247 43.3703C190.336 43.909 190.381 44.454 190.383 45C190.384 45.6144 190.326 46.2274 190.211 46.8308L193.942 49.0349C193.863 49.3005 193.784 49.5662 193.691 49.8246L189.341 49.4154C188.831 50.4349 188.147 51.358 187.32 52.1436L189.039 56.1282C188.816 56.3005 188.586 56.4656 188.356 56.6236L185.077 53.7518C184.078 54.2708 182.999 54.6178 181.884 54.7785L180.964 59H180.101L179.152 54.7641C178.029 54.6102 176.94 54.2679 175.93 53.7518L172.659 56.6236C172.424 56.4656 172.184 56.3005 171.94 56.1282L173.666 52.1436C172.837 51.3582 172.15 50.4351 171.638 49.4154L167.324 49.8246C167.23 49.5662 167.144 49.3005 167.065 49.0349L170.797 46.8308C170.679 46.2273 170.617 45.6146 170.61 45V45ZM180.496 53.3282C182.146 53.3296 183.76 52.8424 185.132 51.9281C186.505 51.0139 187.575 49.7137 188.207 48.192C188.84 46.6704 189.006 44.9956 188.685 43.3797C188.364 41.7637 187.57 40.2791 186.404 39.1136C185.238 37.9482 183.752 37.1543 182.133 36.8323C180.515 36.5104 178.838 36.6749 177.313 37.3051C175.789 37.9352 174.486 39.0026 173.569 40.3723C172.652 41.7421 172.163 43.3525 172.163 45C172.163 47.2075 173.04 49.3248 174.603 50.8864C176.166 52.448 178.286 53.3263 180.496 53.3282V53.3282Z" fill="#3E3A39" stroke="#3E3A39" stroke-width="4" stroke-miterlimit="10"/>
</svg>
