<svg width="196" height="121" viewBox="0 0 196 121" fill="none" xmlns="http://www.w3.org/2000/svg">
<path d="M121.92 64.35H73.43C71.2319 64.35 69.45 66.1319 69.45 68.33V116.82C69.45 119.018 71.2319 120.8 73.43 120.8H121.92C124.118 120.8 125.9 119.018 125.9 116.82V68.33C125.9 66.1319 124.118 64.35 121.92 64.35Z" fill="#3E3A39"/>
<path d="M2 2.7L46.93 47.63H91.75H103.97H148.8L194.43 2" fill="white"/>
<path d="M99.89 10.14H95.8199V14.21H99.89V10.14Z" fill="#FFEB74"/>
<path d="M99.89 18.29H95.8199V22.36H99.89V18.29Z" fill="#3E3A43"/>
<path d="M99.89 26.44H95.8199V30.51H99.89V26.44Z" fill="#FFD800"/>
<path d="M116.19 10.14H112.12V14.21H116.19V10.14Z" fill="#FFEB74"/>
<path d="M116.19 18.29H112.12V22.36H116.19V18.29Z" fill="#3E3A43"/>
<path d="M116.19 26.44H112.12V30.51H116.19V26.44Z" fill="#FFD800"/>
<path d="M108.04 10.14H103.97V14.21H108.04V10.14Z" fill="#FFD800"/>
<path d="M108.04 18.29H103.97V22.36H108.04V18.29Z" fill="#FFD800"/>
<path d="M108.04 26.44H103.97V30.51H108.04V26.44Z" fill="#3E3A43"/>
<path d="M124.34 10.14H120.27V14.21H124.34V10.14Z" fill="#3E3A43"/>
<path d="M124.34 18.29H120.27V22.36H124.34V18.29Z" fill="#7D7D7D"/>
<path d="M124.34 26.44H120.27V30.51H124.34V26.44Z" fill="#FFD800"/>
<path d="M140.64 10.14H136.57V14.21H140.64V10.14Z" fill="#FFEB74"/>
<path d="M140.64 18.29H136.57V22.36H140.64V18.29Z" fill="#7D7D7D"/>
<path d="M140.64 26.44H136.57V30.51H140.64V26.44Z" fill="#FFEB74"/>
<path d="M148.79 10.14H144.72V14.21H148.79V10.14Z" fill="#FFEB74"/>
<path d="M148.79 18.29H144.72V22.36H148.79V18.29Z" fill="#3E3A43"/>
<path d="M148.79 26.44H144.72V30.51H148.79V26.44Z" fill="#FFD800"/>
<path d="M34.7 10.14H30.63V14.21H34.7V10.14Z" fill="#FFD500"/>
<path d="M132.49 10.14H128.42V14.21H132.49V10.14Z" fill="#FFEB74"/>
<path d="M132.49 18.29H128.42V22.36H132.49V18.29Z" fill="#3E3A43"/>
<path d="M132.49 26.44H128.42V30.51H132.49V26.44Z" fill="#3E3A43"/>
<path d="M42.85 10.14H38.78V14.21H42.85V10.14Z" fill="#FFEB74"/>
<path d="M42.85 18.29H38.78V22.36H42.85V18.29Z" fill="#3E3A43"/>
<path d="M59.15 10.14H55.08V14.21H59.15V10.14Z" fill="#FFEB74"/>
<path d="M59.15 18.29H55.08V22.36H59.15V18.29Z" fill="#3E3A43"/>
<path d="M59.15 26.44H55.08V30.51H59.15V26.44Z" fill="#FFD800"/>
<path d="M59.15 34.59H55.08V38.66H59.15V34.59Z" fill="#FFD500"/>
<path d="M50.9999 10.14H46.9299V14.21H50.9999V10.14Z" fill="#FFD800"/>
<path d="M50.9999 18.29H46.9299V22.36H50.9999V18.29Z" fill="#FFD800"/>
<path d="M50.9999 26.44H46.9299V30.51H50.9999V26.44Z" fill="#3E3A43"/>
<path d="M67.3 10.14H63.23V14.21H67.3V10.14Z" fill="#3E3A43"/>
<path d="M67.3 18.29H63.23V22.36H67.3V18.29Z" fill="#7D7D7D"/>
<path d="M67.3 26.44H63.23V30.51H67.3V26.44Z" fill="#FFD800"/>
<path d="M67.3 34.59H63.23V38.66H67.3V34.59Z" fill="#FFD800"/>
<path d="M83.59 10.14H79.52V14.21H83.59V10.14Z" fill="#FFEB74"/>
<path d="M83.59 18.29H79.52V22.36H83.59V18.29Z" fill="#7D7D7D"/>
<path d="M83.59 26.44H79.52V30.51H83.59V26.44Z" fill="#FFEB74"/>
<path d="M83.59 34.59H79.52V38.66H83.59V34.59Z" fill="#3E3A43"/>
<path d="M91.7399 10.14H87.6699V14.21H91.7399V10.14Z" fill="#FFEB74"/>
<path d="M91.7399 18.29H87.6699V22.36H91.7399V18.29Z" fill="#3E3A43"/>
<path d="M91.7399 26.44H87.6699V30.51H91.7399V26.44Z" fill="#FFD800"/>
<path d="M91.7399 34.59H87.6699V38.66H91.7399V34.59Z" fill="#FFD500"/>
<path d="M99.89 42.74H95.8199V46.81H99.89V42.74Z" fill="#FFD500"/>
<path d="M99.89 50.89H95.8199V54.96H99.89V50.89Z" fill="#FFD500"/>
<path d="M75.45 10.14H71.38V14.21H75.45V10.14Z" fill="#FFEB74"/>
<path d="M75.45 18.29H71.38V22.36H75.45V18.29Z" fill="#3E3A43"/>
<path d="M75.45 26.44H71.38V30.51H75.45V26.44Z" fill="#3E3A43"/>
<path d="M75.45 34.59H71.38V38.66H75.45V34.59Z" fill="#FFD500"/>
<path d="M99.89 34.59H95.8199V38.66H99.89V34.59Z" fill="#3E3A43"/>
<path d="M108.04 34.59H103.97V38.66H108.04V34.59Z" fill="#FFEB74"/>
<path d="M124.34 34.59H120.27V38.66H124.34V34.59Z" fill="#FFD800"/>
<path d="M132.49 34.59H128.42V38.66H132.49V34.59Z" fill="#FFEB74"/>
<path d="M140.64 34.59H136.57V38.66H140.64V34.59Z" fill="#3E3A43"/>
<path d="M116.19 34.59H112.12V38.66H116.19V34.59Z" fill="#FFEB74"/>
<path d="M152.88 22.37H156.95V18.3H152.88V22.37Z" fill="#FFEB74"/>
<path d="M152.88 14.22H156.95V10.15H152.88V14.22Z" fill="#3E3A43"/>
<path d="M161.03 14.22H165.1V10.15H161.03V14.22Z" fill="#FFD500"/>
<path d="M103.97 47.63H148.8L194.43 2" stroke="#AAAAAA" stroke-width="4" stroke-miterlimit="10"/>
<path d="M91.75 47.63H46.93L2 2.70001" stroke="#AAAAAA" stroke-width="4" stroke-miterlimit="10"/>
<path d="M103.97 85.85H99.9V89.92H103.97V85.85Z" fill="#FFD800"/>
<path d="M103.97 94H99.9V98.07H103.97V94Z" fill="#FFD800"/>
<path d="M103.97 102.15H99.9V106.22H103.97V102.15Z" fill="#FFD800"/>
<path d="M120.27 102.15H116.2V106.22H120.27V102.15Z" fill="#FFD800"/>
<path d="M112.12 94H108.05V98.07H112.12V94Z" fill="#FFD800"/>
<path d="M112.12 102.15H108.05V106.22H112.12V102.15Z" fill="#FFD800"/>
<path d="M87.67 94H83.6V98.07H87.67V94Z" fill="#FFD800"/>
<path d="M87.67 102.15H83.6V106.22H87.67V102.15Z" fill="#FFD800"/>
<path d="M87.67 110.3H83.6V114.37H87.67V110.3Z" fill="#FFD800"/>
<path d="M95.82 85.85H91.75V89.92H95.82V85.85Z" fill="#FFD800"/>
<path d="M95.82 94H91.75V98.07H95.82V94Z" fill="#FFD800"/>
<path d="M95.82 102.15H91.75V106.22H95.82V102.15Z" fill="#FFD800"/>
<path d="M95.82 110.3H91.75V114.37H95.82V110.3Z" fill="#FFD800"/>
<path d="M79.52 102.15H75.45V106.22H79.52V102.15Z" fill="#FFD800"/>
<path d="M79.52 110.3H75.45V114.37H79.52V110.3Z" fill="#FFD800"/>
<path d="M103.97 110.3H99.9V114.37H103.97V110.3Z" fill="#FFD800"/>
<path d="M112.12 110.3H108.05V114.37H112.12V110.3Z" fill="#FFD800"/>
<path d="M120.27 110.3H116.2V114.37H120.27V110.3Z" fill="#FFD800"/>
</svg>
