<svg width="197" height="166" viewBox="0 0 197 166" fill="none" xmlns="http://www.w3.org/2000/svg">
<path d="M82.56 116.15C93.6499 116.15 102.64 107.16 102.64 96.07C102.64 84.9802 93.6499 75.9901 82.56 75.9901C71.4701 75.9901 62.48 84.9802 62.48 96.07C62.48 107.16 71.4701 116.15 82.56 116.15Z" fill="white" stroke="#AAAAAA" stroke-width="4" stroke-miterlimit="10"/>
<path d="M16.84 84.72C25.0359 84.72 31.68 78.0759 31.68 69.88C31.68 61.6841 25.0359 55.04 16.84 55.04C8.64409 55.04 2 61.6841 2 69.88C2 78.0759 8.64409 84.72 16.84 84.72Z" fill="white" stroke="#AAAAAA" stroke-width="4" stroke-miterlimit="10"/>
<path d="M151.62 89.06C157.899 89.06 162.99 83.9695 162.99 77.69C162.99 71.4106 157.899 66.32 151.62 66.32C145.341 66.32 140.25 71.4106 140.25 77.69C140.25 83.9695 145.341 89.06 151.62 89.06Z" fill="white" stroke="#AAAAAA" stroke-width="4" stroke-miterlimit="10"/>
<path d="M86.86 163.89C91.4661 163.89 95.2 160.156 95.2 155.55C95.2 150.944 91.4661 147.21 86.86 147.21C82.254 147.21 78.52 150.944 78.52 155.55C78.52 160.156 82.254 163.89 86.86 163.89Z" fill="white" stroke="#AAAAAA" stroke-width="4" stroke-miterlimit="10"/>
<path d="M41.13 146.66C48.8178 146.66 55.05 140.428 55.05 132.74C55.05 125.052 48.8178 118.82 41.13 118.82C33.4422 118.82 27.21 125.052 27.21 132.74C27.21 140.428 33.4422 146.66 41.13 146.66Z" fill="white" stroke="#AAAAAA" stroke-width="4" stroke-miterlimit="10"/>
<path d="M30.62 75.3701L63.9 88.6301" stroke="#AAAAAA" stroke-width="4" stroke-miterlimit="10"/>
<path d="M147.06 110.91C138.864 110.91 132.22 117.554 132.22 125.75C132.22 133.946 138.864 140.59 147.06 140.59C155.256 140.59 161.9 133.946 161.9 125.75C161.9 117.554 155.256 110.91 147.06 110.91Z" fill="white" stroke="#AAAAAA" stroke-width="4" stroke-miterlimit="10"/>
<path d="M133.28 120.26L100 107" stroke="#AAAAAA" stroke-width="4" stroke-miterlimit="10"/>
<path d="M67.3401 109.54L51.55 123.51" stroke="#AAAAAA" stroke-width="4" stroke-miterlimit="10"/>
<path d="M79.42 151.84L53.5699 138.94" stroke="#AAAAAA" stroke-width="4" stroke-miterlimit="10"/>
<path d="M150.66 21.3C162.8 21.3 172.66 31.58 172.66 44.3C172.66 52.63 168.36 59.21 162.04 63.96C160.45 65.42 160.45 69.49 160.45 69.49V71.34H140.89V69.49C140.89 69.49 140.89 65.42 139.3 63.96C132.98 59.21 128.68 52.63 128.68 44.3C128.68 31.58 138.57 21.3 150.66 21.3Z" fill="white" stroke="#AAAAAA" stroke-width="4" stroke-miterlimit="10"/>
<path d="M120.07 13.07L128.15 21.16" stroke="#AAAAAA" stroke-width="4" stroke-miterlimit="10"/>
<path d="M175.09 21.16L183.17 13.07" stroke="#AAAAAA" stroke-width="4" stroke-miterlimit="10"/>
<path d="M151.62 0V11.44" stroke="#AAAAAA" stroke-width="4" stroke-miterlimit="10"/>
<path d="M184.81 44.6301H196.24" stroke="#AAAAAA" stroke-width="4" stroke-miterlimit="10"/>
<path d="M107 44.6301H118.43" stroke="#AAAAAA" stroke-width="4" stroke-miterlimit="10"/>
<path d="M151.02 66.57V58.74L143.68 51.39H158.11" stroke="#3E3A39" stroke-width="4" stroke-linejoin="round"/>
<path d="M141 83L102.5 93" stroke="#AAAAAA" stroke-width="4"/>
</svg>
