<svg width="251" height="91" viewBox="0 0 251 91" fill="none" xmlns="http://www.w3.org/2000/svg">
<path d="M53 34.4V89H2V17H35.6338M53 34.4L35.6338 17M53 34.4H35.6338V17" stroke="#AAAAAA" stroke-width="4"/>
<rect x="8" y="47" width="39" height="4" fill="#6E6E6E"/>
<rect x="8" y="54" width="26" height="4" fill="#6E6E6E"/>
<rect x="8" y="61" width="31" height="4" fill="#6E6E6E"/>
<rect x="8" y="68" width="12" height="4" fill="#6E6E6E"/>
<rect x="8" y="75" width="22" height="4" fill="#6E6E6E"/>
<path d="M14.2383 33.0976H10.2305V40H7.96875V22.9375H13.6172C15.5391 22.9375 17.0156 23.375 18.0469 24.25C19.0859 25.125 19.6055 26.3984 19.6055 28.0703C19.6055 29.1328 19.3164 30.0586 18.7383 30.8476C18.168 31.6367 17.3711 32.2265 16.3477 32.6172L20.3555 39.8593V40H17.9414L14.2383 33.0976ZM10.2305 31.2578H13.6875C14.8047 31.2578 15.6914 30.9687 16.3477 30.3906C17.0117 29.8125 17.3438 29.039 17.3438 28.0703C17.3438 27.0156 17.0273 26.207 16.3945 25.6445C15.7695 25.082 14.8633 24.7968 13.6758 24.789H10.2305V31.2578Z" fill="#6E6E6E"/>
<path d="M97.9411 67.1838L112.083 53.0416M112.083 53.0416L97.9411 38.8995M112.083 53.0416H64" stroke="#AAAAAA" stroke-width="4"/>
<path d="M237.375 38.3273H223.093V78.1912H237.375V38.3273Z" fill="#3E3A39" stroke="#3E3A39" stroke-width="4" stroke-miterlimit="10"/>
<path d="M193.213 61.649H178.931V69.9159H193.213V61.649Z" fill="#3E3A39" stroke="#3E3A39" stroke-width="4" stroke-miterlimit="10"/>
<path d="M215.294 71.1239H201.012V82.3164H215.294V71.1239Z" fill="#3E3A39" stroke="#3E3A39" stroke-width="4" stroke-miterlimit="10"/>
<path d="M215.294 82.3164H201.012V86.4499H215.294V82.3164Z" fill="#6E6E6E" stroke="#6E6E6E" stroke-width="4" stroke-miterlimit="10"/>
<path d="M237.375 23.6751H223.093V38.3272H237.375V23.6751Z" fill="#FFD800" stroke="#FFD800" stroke-width="4" stroke-miterlimit="10"/>
<path d="M215.294 57.2935H201.012V71.1239H215.294V57.2935Z" fill="#FFD800" stroke="#FFD800" stroke-width="4" stroke-miterlimit="10"/>
<path d="M193.213 40.9487H178.931V61.649H193.213V40.9487Z" fill="#FFD800" stroke="#FFD800" stroke-width="4" stroke-miterlimit="10"/>
<path d="M193.213 69.916H178.931V86.4499H193.213V69.916Z" fill="#6E6E6E" stroke="#6E6E6E" stroke-width="4" stroke-miterlimit="10"/>
<path d="M237.375 78.183H223.093V86.45H237.375V78.183Z" fill="#6E6E6E" stroke="#6E6E6E" stroke-width="4" stroke-miterlimit="10"/>
<path d="M215.705 37.7767L243.169 8.09448" stroke="#AAAAAA" stroke-width="4" stroke-miterlimit="10"/>
<path d="M172.99 27.1018L208.153 39.642" stroke="#AAAAAA" stroke-width="4" stroke-miterlimit="10"/>
<path d="M212.533 41.2034L246.341 4.66768" stroke="#AAAAAA" stroke-width="4" stroke-miterlimit="10"/>
<path d="M168.593 25.5406L212.533 41.2034" stroke="#AAAAAA" stroke-width="4" stroke-miterlimit="10"/>
<path d="M136.668 66.6125L168.593 25.5406" stroke="#AAAAAA" stroke-width="4" stroke-miterlimit="10"/>
<path d="M251 4.66763C251 2.08977 248.91 0 246.332 0C243.754 0 241.665 2.08977 241.665 4.66763C241.665 7.24549 243.754 9.33526 246.332 9.33526C248.91 9.33526 251 7.24549 251 4.66763Z" fill="#3E3A43"/>
<path d="M217.201 41.2033C217.201 38.6255 215.111 36.5357 212.533 36.5357C209.955 36.5357 207.865 38.6255 207.865 41.2033C207.865 43.7812 209.955 45.871 212.533 45.871C215.111 45.871 217.201 43.7812 217.201 41.2033Z" fill="#3E3A43"/>
<path d="M173.261 25.5406C173.261 22.9628 171.171 20.873 168.593 20.873C166.015 20.873 163.926 22.9628 163.926 25.5406C163.926 28.1185 166.015 30.2083 168.593 30.2083C171.171 30.2083 173.261 28.1185 173.261 25.5406Z" fill="#3E3A43"/>
<path d="M141.335 66.6043C141.335 64.0264 139.246 61.9366 136.668 61.9366C134.09 61.9366 132 64.0264 132 66.6043C132 69.1821 134.09 71.2719 136.668 71.2719C139.246 71.2719 141.335 69.1821 141.335 66.6043Z" fill="#3E3A43"/>
</svg>
