<svg width="187" height="124" viewBox="0 0 187 124" fill="none" xmlns="http://www.w3.org/2000/svg">
<rect x="2" y="2" width="40" height="120" fill="white"/>
<rect x="52" y="2" width="40" height="120" fill="white"/>
<rect x="149" y="4" width="36" height="116" fill="white" stroke="#AAAAAA" stroke-width="4"/>
<path d="M104 62H139.5M139.5 62L127 74.5M139.5 62L127 49.5" stroke="#AAAAAA" stroke-width="4"/>
<rect x="13" y="14" width="18" height="18" fill="#FFEB74"/>
<rect x="13" y="40" width="18" height="18" fill="#FFD800"/>
<rect x="13" y="66" width="18" height="18" fill="#AAAAAA"/>
<rect x="15" y="94" width="14" height="14" stroke="#AAAAAA" stroke-width="4"/>
<rect x="65" y="16" width="14" height="14" stroke="#AAAAAA" stroke-width="4"/>
<rect x="65" y="42" width="14" height="14" stroke="#AAAAAA" stroke-width="4"/>
<rect x="65" y="68" width="14" height="14" stroke="#AAAAAA" stroke-width="4"/>
<rect x="63" y="92" width="18" height="18" fill="#3E3A39"/>
<rect x="158" y="14" width="18" height="18" fill="#FFEB74"/>
<rect x="158" y="40" width="18" height="18" fill="#FFD800"/>
<rect x="158" y="66" width="18" height="18" fill="#AAAAAA"/>
<rect x="158" y="92" width="18" height="18" fill="#3E3A39"/>
<rect x="29" y="44" width="36" height="36" rx="6" fill="#3E3A39"/>
<path d="M37 62H57" stroke="white" stroke-width="4"/>
<path d="M47 52L47 72" stroke="white" stroke-width="4"/>
<path d="M42 36V2H2V122H42V88" stroke="#AAAAAA" stroke-width="4"/>
<path d="M52 36V2H92V122H52V88" stroke="#AAAAAA" stroke-width="4"/>
</svg>
