<svg width="89" height="103" viewBox="0 0 89 103" fill="none" xmlns="http://www.w3.org/2000/svg">
<path d="M26.4997 102.5H0.999738C0.666405 96 1.9 83 13.5 83C25.1 83 26.4997 95.5 26.4997 102.5Z" stroke="#6E6E6E"/>
<path d="M24.5 28.5V1H88V40.5H32" stroke="#6E6E6E"/>
<circle cx="12" cy="18" r="6.5" stroke="#6E6E6E"/>
<path d="M37 26.5C33.5 22.5 27.5 31.5 25 32C23 32.4 18.5 28.5 16.5 26.5H8.5001C1.3001 26.5 1.16677 47.5 2.0001 58H22C21.6667 51.8333 21.2 39.7 22 40.5C22.8 41.3 26 42.5 27 42C32.0596 39.4702 39.8 29.7 37 26.5ZM37 26.5L46.5 15.5" stroke="#6E6E6E"/>
<circle cx="14" cy="75" r="6.5" stroke="#6E6E6E"/>
<path d="M57.5456 102.5H32.0456C31.7123 96 32.9459 83 44.5459 83C56.1459 83 57.5456 95.5 57.5456 102.5Z" stroke="#6E6E6E"/>
<circle cx="45.0459" cy="75" r="6.5" stroke="#6E6E6E"/>
<path d="M87.5456 102.5H62.0456C61.7123 96 62.9459 83 74.5459 83C86.1459 83 87.5456 95.5 87.5456 102.5Z" stroke="#6E6E6E"/>
<circle cx="75.0459" cy="75" r="6.5" stroke="#6E6E6E"/>
</svg>
