<?xml version="1.0" encoding="utf-8"?>
<!-- Generator: Adobe Illustrator 23.0.4, SVG Export Plug-In . SVG Version: 6.00 Build 0)  -->
<svg version="1.1" id="Ebene_1" xmlns="http://www.w3.org/2000/svg" xmlns:xlink="http://www.w3.org/1999/xlink" x="0px" y="0px"
	 viewBox="0 0 670 480" style="enable-background:new 0 0 670 480;" xml:space="preserve">
<style type="text/css">
	.st0{fill:none;stroke:#AAAAAA;stroke-width:4;stroke-miterlimit:10;}
	.st1{fill:#3E3A39;}
	.st2{fill:#FFFFFF;}
	.st3{fill:#FFFFFF;stroke:#AAAAAA;stroke-width:4;stroke-miterlimit:10;}
	.st4{fill:#FFEB74;}
	.st5{fill:#3E3A43;}
	.st6{fill:#FFD800;}
	.st7{fill:#FFD500;}
	.st8{fill:#7D7D7D;}
	.st9{font-family:'ArialMT';}
	.st10{font-size:27.2964px;}
</style>
<g>
	<polyline class="st0" points="140.7,250.5 287,250.5 287,362.6 381.9,362.6 	"/>
	<polyline class="st0" points="287,250.5 287,107.8 331.9,107.8 	"/>
	<polyline class="st0" points="379.6,107.8 449.3,107.8 449.3,207.4 496.5,207.4 	"/>
	<g>
		<path class="st1" d="M380.2,136h-48.5c-2.2,0-4-1.8-4-4V83.6c0-2.2,1.8-4,4-4h48.5c2.2,0,4,1.8,4,4v48.5
			C384.2,134.3,382.4,136,380.2,136z"/>
	</g>
	<g>
		<path class="st1" d="M495.9,179.2h48.5c2.2,0,4,1.8,4,4v48.5c0,2.2-1.8,4-4,4h-48.5c-2.2,0-4-1.8-4-4v-48.5
			C491.9,180.9,493.7,179.2,495.9,179.2z"/>
	</g>
	<g>
		<path class="st1" d="M429.8,390.8h-48.5c-2.2,0-4-1.8-4-4v-48.5c0-2.2,1.8-4,4-4h48.5c2.2,0,4,1.8,4,4v48.5
			C433.7,389,432,390.8,429.8,390.8z"/>
	</g>
	<g>
		<path class="st1" d="M141.3,278.8H92.8c-2.2,0-4-1.8-4-4v-48.5c0-2.2,1.8-4,4-4h48.5c2.2,0,4,1.8,4,4v48.5
			C145.3,277,143.5,278.8,141.3,278.8z"/>
	</g>
</g>
<g>
	<rect x="55.1" y="180.7" class="st2" width="72.5" height="79.9"/>
	<g>
		<rect x="15.1" y="156.2" class="st3" width="72.5" height="79.9"/>
		<g>
			<rect x="25.1" y="169.6" class="st4" width="4.1" height="4.1"/>
			<rect x="25.1" y="177.8" class="st5" width="4.1" height="4.1"/>
			<rect x="25.1" y="185.9" class="st6" width="4.1" height="4.1"/>
			<rect x="25.1" y="194.1" class="st7" width="4.1" height="4.1"/>
			<rect x="25.1" y="202.2" class="st4" width="4.1" height="4.1"/>
			<rect x="25.1" y="210.4" class="st5" width="4.1" height="4.1"/>
			<rect x="25.1" y="218.5" class="st4" width="4.1" height="4.1"/>
			<rect x="41.4" y="169.6" class="st4" width="4.1" height="4.1"/>
			<rect x="41.4" y="177.8" class="st5" width="4.1" height="4.1"/>
			<rect x="41.4" y="185.9" class="st6" width="4.1" height="4.1"/>
			<rect x="41.4" y="194.1" class="st7" width="4.1" height="4.1"/>
			<rect x="41.4" y="202.2" class="st5" width="4.1" height="4.1"/>
			<rect x="41.4" y="210.4" class="st5" width="4.1" height="4.1"/>
			<rect x="41.4" y="218.5" class="st6" width="4.1" height="4.1"/>
			<rect x="33.2" y="169.6" class="st6" width="4.1" height="4.1"/>
			<rect x="33.2" y="177.8" class="st6" width="4.1" height="4.1"/>
			<rect x="33.2" y="185.9" class="st5" width="4.1" height="4.1"/>
			<rect x="33.2" y="194.1" class="st8" width="4.1" height="4.1"/>
			<rect x="33.2" y="202.2" class="st4" width="4.1" height="4.1"/>
			<rect x="33.2" y="210.4" class="st5" width="4.1" height="4.1"/>
			<rect x="33.2" y="218.5" class="st8" width="4.1" height="4.1"/>
			<rect x="49.5" y="169.6" class="st5" width="4.1" height="4.1"/>
			<rect x="49.5" y="177.8" class="st8" width="4.1" height="4.1"/>
			<rect x="49.5" y="185.9" class="st6" width="4.1" height="4.1"/>
			<rect x="49.5" y="194.1" class="st6" width="4.1" height="4.1"/>
			<rect x="49.5" y="202.2" class="st4" width="4.1" height="4.1"/>
			<rect x="49.5" y="210.4" class="st6" width="4.1" height="4.1"/>
			<rect x="49.5" y="218.5" class="st8" width="4.1" height="4.1"/>
			<rect x="65.8" y="169.6" class="st4" width="4.1" height="4.1"/>
			<rect x="65.8" y="177.8" class="st8" width="4.1" height="4.1"/>
			<rect x="65.8" y="185.9" class="st4" width="4.1" height="4.1"/>
			<rect x="65.8" y="194.1" class="st5" width="4.1" height="4.1"/>
			<rect x="65.8" y="202.2" class="st6" width="4.1" height="4.1"/>
			<rect x="65.8" y="210.4" class="st6" width="4.1" height="4.1"/>
			<rect x="65.8" y="218.5" class="st8" width="4.1" height="4.1"/>
			<rect x="74" y="169.6" class="st4" width="4.1" height="4.1"/>
			<rect x="74" y="177.8" class="st5" width="4.1" height="4.1"/>
			<rect x="74" y="185.9" class="st6" width="4.1" height="4.1"/>
			<rect x="74" y="194.1" class="st7" width="4.1" height="4.1"/>
			<rect x="74" y="202.2" class="st4" width="4.1" height="4.1"/>
			<rect x="74" y="210.4" class="st5" width="4.1" height="4.1"/>
			<rect x="74" y="218.5" class="st6" width="4.1" height="4.1"/>
			<rect x="57.7" y="169.6" class="st4" width="4.1" height="4.1"/>
			<rect x="57.7" y="177.8" class="st5" width="4.1" height="4.1"/>
			<rect x="57.7" y="185.9" class="st5" width="4.1" height="4.1"/>
			<rect x="57.7" y="194.1" class="st7" width="4.1" height="4.1"/>
			<rect x="57.7" y="202.2" class="st4" width="4.1" height="4.1"/>
			<rect x="57.7" y="210.4" class="st5" width="4.1" height="4.1"/>
			<rect x="57.7" y="218.5" class="st5" width="4.1" height="4.1"/>
		</g>
	</g>
	<g>
		<rect x="93.8" y="194.1" class="st4" width="24.1" height="4.1"/>
		<rect x="93.8" y="202.2" class="st8" width="24.1" height="4.1"/>
		<rect x="93.8" y="210.4" class="st7" width="24.1" height="4.1"/>
		<rect x="93.8" y="218.5" class="st5" width="24.1" height="4.1"/>
		<rect x="93.8" y="226.7" class="st4" width="24.1" height="4.1"/>
		<rect x="93.8" y="234.8" class="st6" width="24.1" height="4.1"/>
		<rect x="64.9" y="243" class="st5" width="53" height="4.1"/>
	</g>
	<polyline class="st0" points="55.1,242.3 55.1,260.5 127.7,260.5 127.7,180.7 93.8,180.7 	"/>
</g>
<g>
	<path class="st7" d="M446,426.3l-12.2-39.4l-27.1-31.1l0,0c-8.7,7.6-14.2,18.7-14.2,31.1c0,22.8,18.5,41.3,41.3,41.3
		C438,428.1,442.1,427.4,446,426.3z"/>
	<g>
		<path class="st4" d="M414.6,364.8l19.2,22l17.7-23.1l7.4-9.6c-7-5.3-15.7-8.5-25.1-8.5c-10.4,0-19.9,3.8-27.1,10.2L414.6,364.8z"
			/>
		<path class="st8" d="M464,414.9l-30.2-28.1l8.6,27.9l3.6,11.5C452.9,424.1,459.1,420.1,464,414.9z"/>
		<path class="st5" d="M464,414.9c6.8-7.4,11-17.2,11-28.1c0-13.3-6.3-25.2-16.2-32.7l-7.4,9.6l-17.7,23.1L464,414.9z"/>
	</g>
</g>
<g>
	<line class="st0" x1="474.5" y1="421.9" x2="503.7" y2="390.4"/>
	<line class="st0" x1="429.2" y1="410.6" x2="466.5" y2="423.9"/>
	<line class="st0" x1="471.2" y1="425.6" x2="507.1" y2="386.8"/>
	<line class="st0" x1="424.5" y1="409" x2="471.2" y2="425.6"/>
	<line class="st0" x1="390.7" y1="452.6" x2="424.5" y2="409"/>
	<path class="st5" d="M507.1,381.8L507.1,381.8c-2.7,0-5,2.2-5,5l0,0c0,2.7,2.2,5,5,5l0,0c2.7,0,5-2.2,5-5l0,0
		C512,384.1,509.8,381.8,507.1,381.8z"/>
	<path class="st5" d="M471.2,420.6L471.2,420.6c-2.7,0-5,2.2-5,5l0,0c0,2.7,2.2,5,5,5l0,0c2.7,0,5-2.2,5-5l0,0
		C476.1,422.8,473.9,420.6,471.2,420.6z"/>
	<path class="st5" d="M424.5,404L424.5,404c-2.7,0-5,2.2-5,5l0,0c0,2.7,2.2,5,5,5l0,0c2.7,0,5-2.2,5-5l0,0
		C429.5,406.2,427.3,404,424.5,404z"/>
	<path class="st5" d="M390.7,447.6L390.7,447.6c-2.7,0-5,2.2-5,5l0,0c0,2.7,2.2,5,5,5l0,0c2.7,0,5-2.2,5-5l0,0
		C395.6,449.8,393.4,447.6,390.7,447.6z"/>
</g>
<g>
	<path class="st3" d="M600,240.8c15.3-1.9,27-14.9,27-30.7c0-17.1-13.8-30.9-30.9-30.9c-0.7,0-1.3,0-2,0.1
		c-4.8-13.6-17.6-23.3-32.8-23.3c-19.2,0-34.8,15.6-34.8,34.8c0,1.7,0.2,3.4,0.4,5.1c-9.2,3.1-15.9,11.8-15.9,22
		c0,12.8,10.4,23.2,23.2,23.2h3.9"/>
	<g>
		<g>
			<path class="st5" d="M557.8,205.8h91.3c2.7,0,4.9,2.2,4.9,4.9v60.9c0,2.6-2.1,4.8-4.8,4.8h-91.4c-2.6,0-4.8-2.1-4.8-4.8v-60.9
				C553,207.9,555.2,205.8,557.8,205.8z"/>
		</g>
		<text transform="matrix(1 0 0 1 562.9116 234.7568)" class="st2 st9 st10">&gt;_</text>
	</g>
</g>
<g>
	<polyline class="st2" points="260.3,17.9 305.2,62.9 350.1,62.9 362.3,62.9 407.1,62.9 452.7,17.2 	"/>
	<g>
		<rect x="354.1" y="25.4" class="st4" width="4.1" height="4.1"/>
		<rect x="354.1" y="33.5" class="st5" width="4.1" height="4.1"/>
		<rect x="354.1" y="41.7" class="st6" width="4.1" height="4.1"/>
		<rect x="370.4" y="25.4" class="st4" width="4.1" height="4.1"/>
		<rect x="370.4" y="33.5" class="st5" width="4.1" height="4.1"/>
		<rect x="370.4" y="41.7" class="st6" width="4.1" height="4.1"/>
		<rect x="362.3" y="25.4" class="st6" width="4.1" height="4.1"/>
		<rect x="362.3" y="33.5" class="st6" width="4.1" height="4.1"/>
		<rect x="362.3" y="41.7" class="st5" width="4.1" height="4.1"/>
		<rect x="378.6" y="25.4" class="st5" width="4.1" height="4.1"/>
		<rect x="378.6" y="33.5" class="st8" width="4.1" height="4.1"/>
		<rect x="378.6" y="41.7" class="st6" width="4.1" height="4.1"/>
		<rect x="394.9" y="25.4" class="st4" width="4.1" height="4.1"/>
		<rect x="394.9" y="33.5" class="st8" width="4.1" height="4.1"/>
		<rect x="394.9" y="41.7" class="st4" width="4.1" height="4.1"/>
		<rect x="403" y="25.4" class="st4" width="4.1" height="4.1"/>
		<rect x="403" y="33.5" class="st5" width="4.1" height="4.1"/>
		<rect x="403" y="41.7" class="st6" width="4.1" height="4.1"/>
		<rect x="288.9" y="25.4" class="st7" width="4.1" height="4.1"/>
		<rect x="386.7" y="25.4" class="st4" width="4.1" height="4.1"/>
		<rect x="386.7" y="33.5" class="st5" width="4.1" height="4.1"/>
		<rect x="386.7" y="41.7" class="st5" width="4.1" height="4.1"/>
		<rect x="297.1" y="25.4" class="st4" width="4.1" height="4.1"/>
		<rect x="297.1" y="33.5" class="st5" width="4.1" height="4.1"/>
		<rect x="313.4" y="25.4" class="st4" width="4.1" height="4.1"/>
		<rect x="313.4" y="33.5" class="st5" width="4.1" height="4.1"/>
		<rect x="313.4" y="41.7" class="st6" width="4.1" height="4.1"/>
		<rect x="313.4" y="49.8" class="st7" width="4.1" height="4.1"/>
		<rect x="305.2" y="25.4" class="st6" width="4.1" height="4.1"/>
		<rect x="305.2" y="33.5" class="st6" width="4.1" height="4.1"/>
		<rect x="305.2" y="41.7" class="st5" width="4.1" height="4.1"/>
		<rect x="321.5" y="25.4" class="st5" width="4.1" height="4.1"/>
		<rect x="321.5" y="33.5" class="st8" width="4.1" height="4.1"/>
		<rect x="321.5" y="41.7" class="st6" width="4.1" height="4.1"/>
		<rect x="321.5" y="49.8" class="st6" width="4.1" height="4.1"/>
		<rect x="337.8" y="25.4" class="st4" width="4.1" height="4.1"/>
		<rect x="337.8" y="33.5" class="st8" width="4.1" height="4.1"/>
		<rect x="337.8" y="41.7" class="st4" width="4.1" height="4.1"/>
		<rect x="337.8" y="49.8" class="st5" width="4.1" height="4.1"/>
		<rect x="346" y="25.4" class="st4" width="4.1" height="4.1"/>
		<rect x="346" y="33.5" class="st5" width="4.1" height="4.1"/>
		<rect x="346" y="41.7" class="st6" width="4.1" height="4.1"/>
		<rect x="346" y="49.8" class="st7" width="4.1" height="4.1"/>
		<rect x="354.1" y="58" class="st7" width="4.1" height="4.1"/>
		<rect x="354.1" y="66.1" class="st7" width="4.1" height="4.1"/>
		<rect x="329.7" y="25.4" class="st4" width="4.1" height="4.1"/>
		<rect x="329.7" y="33.5" class="st5" width="4.1" height="4.1"/>
		<rect x="329.7" y="41.7" class="st5" width="4.1" height="4.1"/>
		<rect x="329.7" y="49.8" class="st7" width="4.1" height="4.1"/>
		<rect x="354.1" y="49.8" class="st5" width="4.1" height="4.1"/>
		<rect x="362.3" y="49.8" class="st4" width="4.1" height="4.1"/>
		<rect x="378.6" y="49.8" class="st6" width="4.1" height="4.1"/>
		<rect x="386.7" y="49.8" class="st4" width="4.1" height="4.1"/>
		<rect x="394.9" y="49.8" class="st5" width="4.1" height="4.1"/>
		<rect x="370.4" y="49.8" class="st4" width="4.1" height="4.1"/>
		<rect x="411.2" y="33.5" class="st4" width="4.1" height="4.1"/>
		<rect x="411.2" y="25.4" class="st5" width="4.1" height="4.1"/>
		<rect x="419.3" y="25.4" class="st7" width="4.1" height="4.1"/>
	</g>
	<polyline class="st0" points="362.3,62.9 407.1,62.9 452.7,17.2 	"/>
	<polyline class="st0" points="350.1,62.9 305.2,62.9 260.3,17.9 	"/>
	<rect x="358.2" y="101.1" class="st6" width="4.1" height="4.1"/>
	<rect x="358.2" y="109.2" class="st6" width="4.1" height="4.1"/>
	<rect x="358.2" y="117.4" class="st6" width="4.1" height="4.1"/>
	<rect x="374.5" y="117.4" class="st6" width="4.1" height="4.1"/>
	<rect x="366.4" y="109.2" class="st6" width="4.1" height="4.1"/>
	<rect x="366.4" y="117.4" class="st6" width="4.1" height="4.1"/>
	<rect x="341.9" y="109.2" class="st6" width="4.1" height="4.1"/>
	<rect x="341.9" y="117.4" class="st6" width="4.1" height="4.1"/>
	<rect x="341.9" y="125.5" class="st6" width="4.1" height="4.1"/>
	<rect x="350.1" y="101.1" class="st6" width="4.1" height="4.1"/>
	<rect x="350.1" y="109.2" class="st6" width="4.1" height="4.1"/>
	<rect x="350.1" y="117.4" class="st6" width="4.1" height="4.1"/>
	<rect x="350.1" y="125.5" class="st6" width="4.1" height="4.1"/>
	<rect x="333.8" y="117.4" class="st6" width="4.1" height="4.1"/>
	<rect x="333.8" y="125.5" class="st6" width="4.1" height="4.1"/>
	<rect x="358.2" y="125.5" class="st6" width="4.1" height="4.1"/>
	<rect x="366.4" y="125.5" class="st6" width="4.1" height="4.1"/>
	<rect x="374.5" y="125.5" class="st6" width="4.1" height="4.1"/>
</g>
</svg>
