<?xml version="1.0" encoding="utf-8"?>
<!-- Generator: Adobe Illustrator 24.0.0, SVG Export Plug-In . SVG Version: 6.00 Build 0)  -->
<svg version="1.1" id="Layer_1" xmlns="http://www.w3.org/2000/svg" xmlns:xlink="http://www.w3.org/1999/xlink" x="0px" y="0px"
	 viewBox="0 0 720 360" style="enable-background:new 0 0 720 360;" xml:space="preserve">
<style type="text/css">
	.st0{fill:#FFFFFF;}
	.st1{fill:none;stroke:#AAAAAA;stroke-width:4;stroke-miterlimit:10;}
	.st2{fill:#3E3A39;}
	.st3{fill:#FFFFFF;stroke:#AAAAAA;stroke-width:4;stroke-miterlimit:10;}
	.st4{fill:#FFEB74;}
	.st5{fill:#3E3A43;}
	.st6{fill:#FFD800;}
	.st7{fill:#FFD500;}
	.st8{fill:#7D7D7D;}
	.st9{font-family:'ArialMT';}
	.st10{font-size:19.8339px;}
</style>
<rect class="st0" width="720" height="360"/>
<g>
	<g>
		<polyline class="st1" points="219,190 325,190 325,271 394,271 		"/>
		<polyline class="st1" points="325,190 325,86 358,86 		"/>
		<polyline class="st1" points="393,86 443,86 443,158 477,158 		"/>
		<g>
			<path class="st2" d="M393.2,106h-35.3c-1.6,0-2.9-1.3-2.9-2.9V67.9c0-1.6,1.3-2.9,2.9-2.9h35.2c1.6,0,2.9,1.3,2.9,2.9v35.3
				C396,104.7,394.7,106,393.2,106z"/>
		</g>
		<g>
			<path class="st2" d="M476.9,138h35.2c1.6,0,2.9,1.3,2.9,2.9v35.2c0,1.6-1.3,2.9-2.9,2.9h-35.2c-1.6,0-2.9-1.3-2.9-2.9v-35.2
				C474,139.2,475.3,138,476.9,138z"/>
		</g>
		<g>
			<path class="st2" d="M429.1,291h-35.2c-1.6,0-2.9-1.3-2.9-2.9v-35.2c0-1.6,1.3-2.9,2.9-2.9h35.2c1.6,0,2.9,1.3,2.9,2.9v35.2
				C431.9,289.7,430.7,291,429.1,291z"/>
		</g>
		<g>
			<path class="st2" d="M219.1,210h-35.2c-1.6,0-2.9-1.3-2.9-2.9v-35.2c0-1.6,1.3-2.9,2.9-2.9h35.2c1.6,0,2.9,1.3,2.9,2.9v35.2
				C222,208.7,220.7,210,219.1,210z"/>
		</g>
	</g>
	<g>
		<rect x="157" y="139" class="st0" width="53" height="58"/>
		<g>
			<rect x="128" y="121" class="st3" width="53" height="58"/>
			<g>
				<rect x="135" y="131" class="st4" width="3" height="3"/>
				<rect x="135" y="137" class="st5" width="3" height="3"/>
				<rect x="135" y="143" class="st6" width="3" height="3"/>
				<rect x="135" y="149" class="st7" width="3" height="3"/>
				<rect x="135" y="154" class="st4" width="3" height="3"/>
				<rect x="135" y="160" class="st5" width="3" height="3"/>
				<rect x="135" y="166" class="st4" width="3" height="3"/>
				<rect x="147" y="131" class="st4" width="3" height="3"/>
				<rect x="147" y="137" class="st5" width="3" height="3"/>
				<rect x="147" y="143" class="st6" width="3" height="3"/>
				<rect x="147" y="149" class="st7" width="3" height="3"/>
				<rect x="147" y="154" class="st5" width="3" height="3"/>
				<rect x="147" y="160" class="st5" width="3" height="3"/>
				<rect x="147" y="166" class="st6" width="3" height="3"/>
				<rect x="141" y="131" class="st6" width="3" height="3"/>
				<rect x="141" y="137" class="st6" width="3" height="3"/>
				<rect x="141" y="143" class="st5" width="3" height="3"/>
				<rect x="141" y="149" class="st8" width="3" height="3"/>
				<rect x="141" y="154" class="st4" width="3" height="3"/>
				<rect x="141" y="160" class="st5" width="3" height="3"/>
				<rect x="141" y="166" class="st8" width="3" height="3"/>
				<rect x="153" y="131" class="st5" width="3" height="3"/>
				<rect x="153" y="137" class="st8" width="3" height="3"/>
				<rect x="153" y="143" class="st6" width="3" height="3"/>
				<rect x="153" y="149" class="st6" width="3" height="3"/>
				<rect x="153" y="154" class="st4" width="3" height="3"/>
				<rect x="153" y="160" class="st6" width="3" height="3"/>
				<rect x="153" y="166" class="st8" width="3" height="3"/>
				<rect x="165" y="131" class="st4" width="3" height="3"/>
				<rect x="165" y="137" class="st8" width="3" height="3"/>
				<rect x="165" y="143" class="st4" width="3" height="3"/>
				<rect x="165" y="149" class="st5" width="3" height="3"/>
				<rect x="165" y="154" class="st6" width="3" height="3"/>
				<rect x="165" y="160" class="st6" width="3" height="3"/>
				<rect x="165" y="166" class="st8" width="3" height="3"/>
				<rect x="171" y="131" class="st4" width="3" height="3"/>
				<rect x="171" y="137" class="st5" width="3" height="3"/>
				<rect x="171" y="143" class="st6" width="3" height="3"/>
				<rect x="171" y="149" class="st7" width="3" height="3"/>
				<rect x="171" y="154" class="st4" width="3" height="3"/>
				<rect x="171" y="160" class="st5" width="3" height="3"/>
				<rect x="171" y="166" class="st6" width="3" height="3"/>
				<rect x="159" y="131" class="st4" width="3" height="3"/>
				<rect x="159" y="137" class="st5" width="3" height="3"/>
				<rect x="159" y="143" class="st5" width="3" height="3"/>
				<rect x="159" y="149" class="st7" width="3" height="3"/>
				<rect x="159" y="154" class="st4" width="3" height="3"/>
				<rect x="159" y="160" class="st5" width="3" height="3"/>
				<rect x="159" y="166" class="st5" width="3" height="3"/>
			</g>
		</g>
		<g>
			<rect x="185" y="149" class="st4" width="18" height="3"/>
			<rect x="185" y="154" class="st8" width="18" height="3"/>
			<rect x="185" y="160" class="st7" width="18" height="3"/>
			<rect x="185" y="166" class="st5" width="18" height="3"/>
			<rect x="185" y="172" class="st4" width="18" height="3"/>
			<rect x="185" y="178" class="st6" width="18" height="3"/>
			<rect x="164" y="184" class="st5" width="39" height="3"/>
		</g>
		<polyline class="st1" points="157,184 157,197 210,197 210,139 185,139 		"/>
	</g>
	<g>
		<path class="st7" d="M441,317.3l-8.9-28.6L412.4,266l0,0c-6.3,5.5-10.3,13.6-10.3,22.6c0,16.6,13.4,30,30,30
			C435.2,318.6,438.1,318.1,441,317.3z"/>
		<g>
			<path class="st4" d="M418.2,272.6l14,16l12.9-16.8l5.4-7c-5.1-3.9-11.4-6.2-18.2-6.2c-7.6,0-14.5,2.8-19.7,7.4L418.2,272.6z"/>
			<path class="st8" d="M454.1,309l-21.9-20.4l6.2,20.3l2.6,8.4C446,315.7,450.5,312.8,454.1,309z"/>
			<path class="st5" d="M454.1,309c4.9-5.4,8-12.5,8-20.4c0-9.7-4.6-18.3-11.8-23.8l-5.4,7L432,288.6L454.1,309z"/>
		</g>
	</g>
	<g>
		<line class="st1" x1="461.7" y1="314.1" x2="482.9" y2="291.2"/>
		<line class="st1" x1="428.8" y1="305.8" x2="455.9" y2="315.5"/>
		<line class="st1" x1="459.3" y1="316.7" x2="485.4" y2="288.6"/>
		<line class="st1" x1="425.4" y1="304.7" x2="459.3" y2="316.7"/>
		<line class="st1" x1="400.8" y1="336.4" x2="425.4" y2="304.7"/>
		<path class="st5" d="M485.4,284.9L485.4,284.9c-2,0-3.6,1.6-3.6,3.6l0,0c0,2,1.6,3.6,3.6,3.6l0,0c2,0,3.6-1.6,3.6-3.6l0,0
			C488.9,286.6,487.3,284.9,485.4,284.9z"/>
		<path class="st5" d="M459.3,313.1L459.3,313.1c-2,0-3.6,1.6-3.6,3.6l0,0c0,2,1.6,3.6,3.6,3.6l0,0c2,0,3.6-1.6,3.6-3.6l0,0
			C462.9,314.7,461.3,313.1,459.3,313.1z"/>
		<path class="st5" d="M425.4,301.1L425.4,301.1c-2,0-3.6,1.6-3.6,3.6l0,0c0,2,1.6,3.6,3.6,3.6l0,0c2,0,3.6-1.6,3.6-3.6l0,0
			C429,302.7,427.4,301.1,425.4,301.1z"/>
		<path class="st5" d="M400.8,332.7L400.8,332.7c-2,0-3.6,1.6-3.6,3.6l0,0c0,2,1.6,3.6,3.6,3.6l0,0c2,0,3.6-1.6,3.6-3.6l0,0
			C404.4,334.3,402.8,332.7,400.8,332.7z"/>
	</g>
	<g>
		<path class="st3" d="M552.9,182.8c11.1-1.4,19.6-10.8,19.6-22.3c0-12.4-10-22.5-22.5-22.5c-0.5,0-0.9,0-1.5,0.1
			c-3.5-9.9-12.8-16.9-23.8-16.9c-14,0-25.3,11.3-25.3,25.3c0,1.2,0.1,2.5,0.3,3.7c-7.5,2.5-12.8,10.2-11.3,18.9
			c1.4,8.2,8.7,14,17,14h2.6"/>
		<g>
			<g>
				<path class="st5" d="M522.5,157h66c2,0,3.6,1.6,3.6,3.6v44c0,1.9-1.5,3.5-3.5,3.5h-66.1c-1.9,0-3.5-1.5-3.5-3.5v-44
					C519,158.5,520.6,157,522.5,157z"/>
			</g>
			<text transform="matrix(1 0 0 1 525.9297 178.0801)" class="st0 st9 st10">&gt;_</text>
		</g>
	</g>
	<g>
		<polyline class="st0" points="306,20.3 338.7,53 371.3,53 380.2,53 412.7,53 445.8,19.8 		"/>
		<g>
			<rect x="374" y="26" class="st4" width="3" height="3"/>
			<rect x="374" y="32" class="st5" width="3" height="3"/>
			<rect x="374" y="38" class="st6" width="3" height="3"/>
			<rect x="386" y="26" class="st4" width="3" height="3"/>
			<rect x="386" y="32" class="st5" width="3" height="3"/>
			<rect x="386" y="38" class="st6" width="3" height="3"/>
			<rect x="380" y="26" class="st6" width="3" height="3"/>
			<rect x="380" y="32" class="st6" width="3" height="3"/>
			<rect x="380" y="38" class="st5" width="3" height="3"/>
			<rect x="392" y="26" class="st5" width="3" height="3"/>
			<rect x="392" y="32" class="st8" width="3" height="3"/>
			<rect x="392" y="38" class="st6" width="3" height="3"/>
			<rect x="404" y="26" class="st4" width="3" height="3"/>
			<rect x="404" y="32" class="st8" width="3" height="3"/>
			<rect x="404" y="38" class="st4" width="3" height="3"/>
			<rect x="410" y="26" class="st4" width="3" height="3"/>
			<rect x="410" y="32" class="st5" width="3" height="3"/>
			<rect x="410" y="38" class="st6" width="3" height="3"/>
			<rect x="327" y="26" class="st7" width="3" height="3"/>
			<rect x="398" y="26" class="st4" width="3" height="3"/>
			<rect x="398" y="32" class="st5" width="3" height="3"/>
			<rect x="398" y="38" class="st5" width="3" height="3"/>
			<rect x="333" y="26" class="st4" width="3" height="3"/>
			<rect x="333" y="32" class="st5" width="3" height="3"/>
			<rect x="345" y="26" class="st4" width="3" height="3"/>
			<rect x="345" y="32" class="st5" width="3" height="3"/>
			<rect x="345" y="38" class="st6" width="3" height="3"/>
			<rect x="345" y="44" class="st7" width="3" height="3"/>
			<rect x="339" y="26" class="st6" width="3" height="3"/>
			<rect x="339" y="32" class="st6" width="3" height="3"/>
			<rect x="339" y="38" class="st5" width="3" height="3"/>
			<rect x="351" y="26" class="st5" width="3" height="3"/>
			<rect x="351" y="32" class="st8" width="3" height="3"/>
			<rect x="351" y="38" class="st6" width="3" height="3"/>
			<rect x="351" y="44" class="st6" width="3" height="3"/>
			<rect x="362" y="26" class="st4" width="3" height="3"/>
			<rect x="362" y="32" class="st8" width="3" height="3"/>
			<rect x="362" y="38" class="st4" width="3" height="3"/>
			<rect x="362" y="44" class="st5" width="3" height="3"/>
			<rect x="368" y="26" class="st4" width="3" height="3"/>
			<rect x="368" y="32" class="st5" width="3" height="3"/>
			<rect x="368" y="38" class="st6" width="3" height="3"/>
			<rect x="368" y="44" class="st7" width="3" height="3"/>
			<rect x="374" y="50" class="st7" width="3" height="3"/>
			<rect x="374" y="56" class="st7" width="3" height="3"/>
			<rect x="356" y="26" class="st4" width="3" height="3"/>
			<rect x="356" y="32" class="st5" width="3" height="3"/>
			<rect x="356" y="38" class="st5" width="3" height="3"/>
			<rect x="356" y="44" class="st7" width="3" height="3"/>
			<rect x="374" y="44" class="st5" width="3" height="3"/>
			<rect x="380" y="44" class="st4" width="3" height="3"/>
			<rect x="392" y="44" class="st6" width="3" height="3"/>
			<rect x="398" y="44" class="st4" width="3" height="3"/>
			<rect x="404" y="44" class="st5" width="3" height="3"/>
			<rect x="386" y="44" class="st4" width="3" height="3"/>
			<rect x="416" y="32" class="st4" width="3" height="3"/>
			<rect x="416" y="26" class="st5" width="3" height="3"/>
			<rect x="422" y="26" class="st7" width="3" height="3"/>
		</g>
		<polyline class="st1" points="380,53 412.7,53 445.8,19.8 		"/>
		<polyline class="st1" points="371,53 338.7,53 306,20.3 		"/>
		<rect x="377" y="81" class="st6" width="3" height="3"/>
		<rect x="377" y="87" class="st6" width="3" height="3"/>
		<rect x="377" y="93" class="st6" width="3" height="3"/>
		<rect x="389" y="93" class="st6" width="3" height="3"/>
		<rect x="383" y="87" class="st6" width="3" height="3"/>
		<rect x="383" y="93" class="st6" width="3" height="3"/>
		<rect x="365" y="87" class="st6" width="3" height="3"/>
		<rect x="365" y="93" class="st6" width="3" height="3"/>
		<rect x="365" y="99" class="st6" width="3" height="3"/>
		<rect x="371" y="81" class="st6" width="3" height="3"/>
		<rect x="371" y="87" class="st6" width="3" height="3"/>
		<rect x="371" y="93" class="st6" width="3" height="3"/>
		<rect x="371" y="99" class="st6" width="3" height="3"/>
		<rect x="359" y="93" class="st6" width="3" height="3"/>
		<rect x="359" y="99" class="st6" width="3" height="3"/>
		<rect x="377" y="99" class="st6" width="3" height="3"/>
		<rect x="383" y="99" class="st6" width="3" height="3"/>
		<rect x="389" y="99" class="st6" width="3" height="3"/>
	</g>
</g>
</svg>
