<?xml version="1.0" encoding="utf-8"?>
<!-- Generator: Adobe Illustrator 24.0.1, SVG Export Plug-In . SVG Version: 6.00 Build 0)  -->
<svg version="1.1" id="Layer_1" xmlns="http://www.w3.org/2000/svg" xmlns:xlink="http://www.w3.org/1999/xlink" x="0px" y="0px"
	 viewBox="0 0 720 360" enable-background="new 0 0 720 360" xml:space="preserve">
<path fill="#FFFFFF" d="M599.04,329.761H244.217c-6.23,0-11.28-5.05-11.28-11.28V62.076c0-6.23,5.05-11.28,11.28-11.28H599.04
	c6.23,0,11.28,5.05,11.28,11.28v256.405C610.32,324.711,605.27,329.761,599.04,329.761z"/>
<g>
	<path fill="#FFFFFF" stroke="#AAAAAA" stroke-width="2.8197" stroke-miterlimit="10" d="M490.825,50.796h108.216
		c6.203,0,11.279,5.076,11.279,11.279v16.138"/>
	<path fill="#FFFFFF" stroke="#AAAAAA" stroke-width="2.8197" stroke-miterlimit="10" d="M423.322,329.761H244.216
		c-6.203,0-11.279-5.076-11.279-11.279V62.075c0-6.203,5.076-11.279,11.279-11.279h94.162"/>
	<g>
		<path fill="#3E3A39" d="M383.025,295.91h154.206c6.959,0,12.6-5.641,12.6-12.6v-22.465c0-6.959-5.641-12.6-12.6-12.6H383.025
			c-6.959,0-12.6,5.641-12.6,12.6v22.465C370.425,290.269,376.066,295.91,383.025,295.91z"/>
		<g>
			
				<line fill="none" stroke="#FFFFFF" stroke-width="2.8" stroke-miterlimit="10" x1="402.752" y1="266.129" x2="500.189" y2="266.129"/>
			
				<line fill="none" stroke="#FFFFFF" stroke-width="2.8" stroke-miterlimit="10" x1="402.752" y1="276.629" x2="456.552" y2="276.629"/>
		</g>
		<g>
			
				<rect x="330.621" y="269.809" fill="#F9FAFB" stroke="#AAAAAA" stroke-width="2.8" stroke-miterlimit="10" width="49.091" height="38.182"/>
			<g>
				
					<line fill="none" stroke="#AAAAAA" stroke-width="2.8" stroke-miterlimit="10" x1="347.802" y1="273.627" x2="347.802" y2="265.991"/>
				
					<line fill="none" stroke="#AAAAAA" stroke-width="2.8" stroke-miterlimit="10" x1="362.53" y1="265.991" x2="362.53" y2="273.627"/>
			</g>
			
				<line fill="none" stroke="#AAAAAA" stroke-width="2.8" stroke-miterlimit="10" x1="373.199" y1="301.661" x2="366.653" y2="301.661"/>
			
				<line fill="none" stroke="#AAAAAA" stroke-width="2.8" stroke-miterlimit="10" x1="358.537" y1="301.661" x2="351.992" y2="301.661"/>
			
				<line fill="none" stroke="#AAAAAA" stroke-width="2.8" stroke-miterlimit="10" x1="343.81" y1="301.661" x2="337.264" y2="301.661"/>
			
				<line fill="none" stroke="#AAAAAA" stroke-width="2.8" stroke-miterlimit="10" x1="373.199" y1="294.042" x2="366.653" y2="294.042"/>
			
				<line fill="none" stroke="#AAAAAA" stroke-width="2.8" stroke-miterlimit="10" x1="358.537" y1="294.042" x2="351.992" y2="294.042"/>
			
				<line fill="none" stroke="#AAAAAA" stroke-width="2.8" stroke-miterlimit="10" x1="343.81" y1="294.042" x2="337.264" y2="294.042"/>
			
				<line fill="none" stroke="#AAAAAA" stroke-width="2.8" stroke-miterlimit="10" x1="373.199" y1="286.423" x2="366.653" y2="286.423"/>
			
				<line fill="none" stroke="#AAAAAA" stroke-width="2.8" stroke-miterlimit="10" x1="358.537" y1="286.423" x2="351.992" y2="286.423"/>
			
				<line fill="none" stroke="#AAAAAA" stroke-width="2.8" stroke-miterlimit="10" x1="343.81" y1="286.423" x2="337.264" y2="286.423"/>
			
				<line fill="none" stroke="#AAAAAA" stroke-width="2.8" stroke-miterlimit="10" x1="330.621" y1="278.39" x2="379.711" y2="278.39"/>
		</g>
	</g>
	<path fill="#FFFFFF" stroke="#AAAAAA" stroke-width="2.8" stroke-miterlimit="10" d="M145.826,256.424h58.566
		c2.13,0,3.857,1.727,3.857,3.857v36.473c0,2.13-1.727,3.857-3.857,3.857h-58.566c-2.13,0-3.857-1.727-3.857-3.857V260.28
		C141.969,258.15,143.696,256.424,145.826,256.424z"/>
	<path fill="#F9FAFB" stroke="#AAAAAA" stroke-width="2.8" stroke-miterlimit="10" d="M181.498,260.388"/>
	<path fill="#F9FAFB" stroke="#AAAAAA" stroke-width="2.8" stroke-miterlimit="10" d="M181.498,260.388"/>
	<path fill="#FFFFFF" stroke="#AAAAAA" stroke-width="2.8" stroke-miterlimit="10" d="M303.552,362.946"/>
	<polyline fill="none" stroke="#AAAAAA" stroke-width="2.8" stroke-miterlimit="10" points="206.986,257.431 175.109,282.865 
		143.683,258.137 	"/>
	<g>
		
			<ellipse transform="matrix(0.0985 -0.9951 0.9951 0.0985 -128.0472 363.5634)" fill="#3E3A39" stroke="#FFFFFF" stroke-width="2.8197" stroke-linejoin="round" stroke-miterlimit="10" cx="136.647" cy="252.458" rx="22.469" ry="22.469"/>
		<polyline fill="none" stroke="#FFFFFF" stroke-width="2.8197" stroke-miterlimit="10" points="127.341,252.352 134.658,259.155 
			145.954,245.761 		"/>
	</g>
	<g>
		<path fill="#FFFFFF" d="M401.842,231.8h154.206c6.959,0,12.6-5.641,12.6-12.6v-22.465c0-6.959-5.641-12.6-12.6-12.6H401.842
			c-6.959,0-12.6,5.641-12.6,12.6V219.2C389.242,226.159,394.883,231.8,401.842,231.8z"/>
		<path fill="none" stroke="#AAAAAA" stroke-width="2.8" stroke-miterlimit="10" d="M568.648,205.651v-8.457
			c0-6.959-5.641-12.6-12.6-12.6h-20.713"/>
		<path fill="none" stroke="#AAAAAA" stroke-width="2.8" stroke-miterlimit="10" d="M389.242,199.708v19.951
			c0,6.959,5.641,12.6,12.6,12.6h139.165"/>
		<g>
			<polygon fill="#FFFFFF" stroke="#AAAAAA" stroke-width="2.8" stroke-miterlimit="10" points="583.55,222.376 586.196,218.861 
				581.649,214.352 578.124,217.036 572.914,214.901 572.379,210.526 565.881,210.528 565.311,214.906 560.008,217.107 
				556.503,214.441 552.006,218.956 554.69,222.388 552.458,227.697 548.148,228.245 548.139,234.735 552.432,235.269 
				554.631,240.585 552.041,244.132 556.594,248.668 560.104,246.019 565.327,248.166 565.889,252.514 572.391,252.512 
				572.972,248.152 578.226,245.969 581.785,248.588 586.302,244.039 583.639,240.548 585.804,235.312 590.134,234.746 
				590.125,228.238 585.782,227.669 			"/>
			<circle fill="#F9FAFB" stroke="#AAAAAA" stroke-width="2.8" stroke-miterlimit="10" cx="569.137" cy="231.52" r="7.572"/>
		</g>
		<g>
			
				<line fill="none" stroke="#AAAAAA" stroke-width="2.8" stroke-miterlimit="10" x1="423.322" y1="203.176" x2="516.891" y2="203.176"/>
			
				<line fill="none" stroke="#AAAAAA" stroke-width="2.8" stroke-miterlimit="10" x1="423.322" y1="213.676" x2="474.987" y2="213.676"/>
		</g>
	</g>
	<g>
		<path fill="#AAAAAA" d="M372.838,192.408h154.206c6.959,0,12.6-5.641,12.6-12.6v-22.465c0-6.959-5.641-12.6-12.6-12.6H372.838
			c-6.959,0-12.6,5.641-12.6,12.6v22.465C360.238,186.766,365.879,192.408,372.838,192.408z"/>
		<g>
			<g>
				<g>
					<path fill="#F9FAFB" stroke="#AAAAAA" stroke-width="2.8" stroke-miterlimit="10" d="M354.086,165.044
						c8.476,0,15.345,7.174,15.345,16.023c0,5.818-3.004,10.411-7.417,13.725v-0.003c-1.109,1.026-1.109,3.863-1.109,3.863v9.212
						c0,0-0.778,3.089-6.819,3.089s-6.819-3.089-6.819-3.089v-9.212c0,0,0-2.838-1.109-3.863v0.003
						c-4.413-3.314-7.417-7.906-7.417-13.725C338.741,172.217,345.61,165.044,354.086,165.044z"/>
				</g>
				<path fill="#F9FAFB" stroke="#AAAAAA" stroke-width="2.8" stroke-miterlimit="10" d="M347.265,200.852c0,0,6.849,3.837,13.641,0
					"/>
			</g>
			
				<line fill="none" stroke="#AAAAAA" stroke-width="2.8" stroke-miterlimit="10" x1="371.137" y1="197.707" x2="376.782" y2="203.352"/>
			
				<line fill="none" stroke="#AAAAAA" stroke-width="2.8" stroke-miterlimit="10" x1="332.729" y1="159.299" x2="338.374" y2="164.943"/>
			
				<line fill="none" stroke="#FFFFFF" stroke-width="2.8" stroke-miterlimit="10" x1="371.138" y1="164.943" x2="376.782" y2="159.299"/>
			
				<line fill="none" stroke="#AAAAAA" stroke-width="2.8" stroke-miterlimit="10" x1="332.729" y1="203.352" x2="338.378" y2="197.703"/>
			
				<line fill="none" stroke="#AAAAAA" stroke-width="2.8" stroke-miterlimit="10" x1="354.756" y1="150.175" x2="354.756" y2="158.157"/>
			
				<line fill="none" stroke="#FFFFFF" stroke-width="2.8" stroke-miterlimit="10" x1="377.923" y1="181.325" x2="385.905" y2="181.325"/>
			
				<line fill="none" stroke="#AAAAAA" stroke-width="2.8" stroke-miterlimit="10" x1="323.605" y1="181.325" x2="331.588" y2="181.325"/>
		</g>
		<g>
			
				<line fill="none" stroke="#FFFFFF" stroke-width="2.8" stroke-miterlimit="10" x1="402.752" y1="164.025" x2="500.189" y2="164.025"/>
			
				<line fill="none" stroke="#FFFFFF" stroke-width="2.8" stroke-miterlimit="10" x1="402.752" y1="174.525" x2="456.552" y2="174.525"/>
		</g>
	</g>
	<g>
		<g>
			<path fill="#FFD800" stroke="#FFD800" stroke-width="2.8197" stroke-miterlimit="10" d="M567.275,129.478H401.842
				c-6.93,0-12.6-5.67-12.6-12.6V90.813c0-6.93,5.67-12.6,12.6-12.6h165.433c6.93,0,12.6,5.67,12.6,12.6v26.065
				C579.875,123.808,574.205,129.478,567.275,129.478z"/>
		</g>
		<g>
			
				<line fill="none" stroke="#3E3A39" stroke-width="2.8" stroke-miterlimit="10" x1="423.322" y1="92.756" x2="516.891" y2="92.756"/>
			
				<line fill="none" stroke="#3E3A39" stroke-width="2.8" stroke-miterlimit="10" x1="423.322" y1="113.756" x2="516.891" y2="113.756"/>
			
				<line fill="none" stroke="#3E3A39" stroke-width="2.8" stroke-miterlimit="10" x1="423.322" y1="103.256" x2="474.987" y2="103.256"/>
		</g>
		<g>
			<path fill="#F9FAFB" stroke="#AAAAAA" stroke-width="2.8" stroke-miterlimit="10" d="M581.494,99.057
				c0,2.643-2.142,4.785-4.785,4.785c-2.643,0-4.785-2.142-4.785-4.785"/>
			<path fill="#F9FAFB" stroke="#AAAAAA" stroke-width="2.8" stroke-miterlimit="10" d="M591.346,93.603
				c-0.578-1.129-0.88-2.379-0.88-3.648v-6.087c0-6.294-4.232-11.589-10.002-13.225c0.025-0.175,0.054-0.35,0.054-0.532
				c0-2.104-1.705-3.809-3.809-3.809s-3.809,1.705-3.809,3.809c0,0.182,0.029,0.357,0.054,0.532
				c-5.77,1.636-10.002,6.931-10.002,13.225v6.087c0,1.269-0.302,2.519-0.88,3.648l-1.671,3.264
				c-0.519,1.013,0.217,2.216,1.355,2.216h29.907c1.138,0,1.874-1.203,1.355-2.216L591.346,93.603z"/>
		</g>
	</g>
	<path fill="#EFF1F2" stroke="#EFF1F2" stroke-width="2.8197" stroke-miterlimit="10" d="M310.388,317.801h-63.515
		c-1.433-0.7-2.595-1.862-2.595-3.295V65.79c0-1.433,1.162-2.595,2.595-2.595h63.515c1.433,0,2.595,1.162,2.595,2.595v248.715
		C312.983,315.939,311.822,317.101,310.388,317.801z"/>
	<path fill="none" stroke="#AAAAAA" stroke-width="2.8" stroke-miterlimit="10" stroke-dasharray="2.8,8.4" d="M117.829,233.367
		c-20.229-26.999,8.437-72.561,52.259-31.218c42.346,39.951,120.831,67.856,86.859-25.446
		c-37.787-103.779,52.658-98.49,93.496-110.219"/>
	<g>
		<path fill="#FFFFFF" d="M356.525,59.591c-2.317,0.455-4.578-1.005-5.116-3.304l-5.865-25.071c-0.499-2.131,1.163-4.154,3.35-4.08
			l141.927,5.598c3.392,0.116,4.45,4.641,1.462,6.25L367.39,106.2c-1.927,1.037-4.314-0.039-4.812-2.17l-6.936-29.649
			c-0.537-2.297,0.84-4.606,3.116-5.225"/>
		<path fill="#FFFFFF" stroke="#AAAAAA" stroke-width="2.8" stroke-miterlimit="10" d="M356.525,59.591
			c-2.317,0.455-4.578-1.005-5.116-3.304l-5.865-25.071c-0.499-2.131,1.163-4.154,3.35-4.08l141.927,5.598
			c3.392,0.116,4.45,4.641,1.462,6.25L367.39,106.2c-1.927,1.037-4.314-0.039-4.812-2.17l-6.936-29.649
			c-0.537-2.297,0.84-4.606,3.116-5.225"/>
		<polygon fill="#AAAAAA" points="353.398,59.033 354.371,61.076 369.958,65.86 472.089,40.139 		"/>
		<path fill="none" stroke="#AAAAAA" stroke-width="2.8" stroke-miterlimit="10" d="M405.865,52.26l-49.339,7.331
			c-2.317,0.455-4.578-1.005-5.116-3.304l-5.865-25.071c-0.499-2.131,1.163-4.154,3.35-4.08l141.927,5.598
			c3.392,0.116,4.45,4.641,1.462,6.25L367.39,106.2c-1.927,1.037-4.314-0.039-4.812-2.17l-6.936-29.649
			c-0.537-2.297,0.84-4.606,3.116-5.225l47.69-14.09"/>
	</g>
</g>
</svg>
