<svg id="Layer_1" data-name="Layer 1" xmlns="http://www.w3.org/2000/svg" viewBox="0 0 459.1 119.6"><defs><style>.cls-1{fill:#ffd500;}.cls-2{fill:#3e3a39;}</style></defs><title>KNIME_Logo_CB_NT</title><path class="cls-1" d="M91.38,22.32,22.32,141.92h138.1ZM75.65,127.65V82l1.42-6.34,39.55,22.82,4.78,4.41L81.85,125.71Zm2-54.66,1.91-8.57,28.25,26Zm-4.62,55.48-8.37,2.62,8.37-37.45Zm50.36-23.75,6.46,5.94L93.24,122.14ZM80.78,61.1l2.71-7.19,32,39.14ZM61.2,131.71,53.62,133,71.5,85.63Zm71-18.35L137,119.3l-49.92,8.18ZM84.6,49.09l2.82-5.75,34.2,51ZM48.89,134.4l-6.39.44L69.56,79.72Zm91.74-11.73L144.2,128l-61.26,4.13ZM125.84,92.43l-37-55.22,2.58-4.47ZM65.81,77,36.5,136.71H31.34Zm16.65,59.68,66.36-4.46,2.58,4.46Z" transform="translate(-22.32 -22.32)"/><path class="cls-2" d="M193.41,46.07c0,5.74-3.34,9.31-8.61,9.31s-8.62-3.6-8.62-9.18S179.65,37,185,37C190.05,37,193.41,40.59,193.41,46.07Zm-14.47,0c0,4.34,2.34,7.17,5.88,7.17s5.84-2.86,5.84-7.12S188.39,39,184.82,39,178.94,41.92,178.94,46.12Z" transform="translate(-22.32 -22.32)"/><path class="cls-2" d="M197.42,45.92c0-1.38,0-2.75-.13-3.85h2.32c0,.54.1,1.43.1,2.09h0a4.89,4.89,0,0,1,4.46-2.39c3.34,0,5.58,2.65,5.58,6.62,0,4.13-2.26,7-5.63,7a4.89,4.89,0,0,1-4.36-2.5h-.05c.05.51.08,2.45.08,3.21v4.33h-2.42Zm2.39,2.68c0,2.6,1.69,4.76,3.83,4.76s3.64-2.14,3.64-4.76c0-2.88-1.42-4.82-3.64-4.82S199.81,45.9,199.81,48.6Z" transform="translate(-22.32 -22.32)"/><path class="cls-2" d="M215.18,49.16a4.14,4.14,0,0,0,4.51,4.18,7.77,7.77,0,0,0,3.8-1l.07,2.22a9.52,9.52,0,0,1-4,.79c-4.34,0-6.81-2.63-6.81-6.91,0-4.1,2.5-6.7,6.19-6.7,3.42,0,5.59,2.06,5.59,6.44,0,.26,0,.67,0,.95Zm7-1.86c0-2.5-1.38-3.7-3.29-3.7s-3.42,1.38-3.62,3.7Z" transform="translate(-22.32 -22.32)"/><path class="cls-2" d="M230.56,44.16a5,5,0,0,1,4.33-2.39c3.67,0,4.85,2.42,4.85,5.86v7.44h-2.43V48.65c0-2.55-.25-4.87-3-4.87a3.66,3.66,0,0,0-3.11,1.86,6.33,6.33,0,0,0-.61,3.21v6.22h-2.42V45.92c0-1.38,0-2.75-.13-3.85h2.37c.05.56.1,1.4.1,2.09Z" transform="translate(-22.32 -22.32)"/><path class="cls-2" d="M258.2,37.87a5.16,5.16,0,0,0-1.25-.16c-1.61,0-2.19.95-2.19,3.16v1.28h3.49v1.91h-3.49v11h-2.4v-11h-3.08V42.15h3.08V40.92c0-3.11,1.07-5.22,4.23-5.22a7.28,7.28,0,0,1,1.79.2Z" transform="translate(-22.32 -22.32)"/><path class="cls-2" d="M273.38,48.65a6.68,6.68,0,1,1-13.36,0,6.51,6.51,0,0,1,6.75-6.88C270.62,41.77,273.38,44.62,273.38,48.65Zm-10.79,0c0,2.85,1.68,4.71,4.16,4.71s4.1-1.88,4.1-4.71-1.73-4.87-4.18-4.87S262.59,45.77,262.59,48.65Z" transform="translate(-22.32 -22.32)"/><path class="cls-2" d="M279.42,44.26a4.08,4.08,0,0,1,3.65-2.49,3.6,3.6,0,0,1,1.24.17v2.27A3.35,3.35,0,0,0,283,44c-2.25,0-3.6,1.86-3.6,5.17v5.89H277V45.92c0-1.38,0-2.75-.13-3.85h2.4a20.06,20.06,0,0,1,.1,2.19Z" transform="translate(-22.32 -22.32)"/><path class="cls-2" d="M296.84,55.07h-2.6V37.28h2.6Z" transform="translate(-22.32 -22.32)"/><path class="cls-2" d="M304.06,44.16a5,5,0,0,1,4.33-2.39c3.67,0,4.85,2.42,4.85,5.86v7.44h-2.43V48.65c0-2.55-.25-4.87-3-4.87a3.66,3.66,0,0,0-3.1,1.86,6.32,6.32,0,0,0-.62,3.21v6.22h-2.42V45.92c0-1.38,0-2.75-.13-3.85h2.38c0,.56.1,1.4.1,2.09Z" transform="translate(-22.32 -22.32)"/><path class="cls-2" d="M320,44.16a5,5,0,0,1,4.34-2.39c3.67,0,4.84,2.42,4.84,5.86v7.44h-2.42V48.65c0-2.55-.25-4.87-3-4.87a3.67,3.67,0,0,0-3.11,1.86,6.33,6.33,0,0,0-.61,3.21v6.22H317.6V45.92c0-1.38,0-2.75-.13-3.85h2.37c.05.56.1,1.4.1,2.09Z" transform="translate(-22.32 -22.32)"/><path class="cls-2" d="M346.06,48.65a6.42,6.42,0,0,1-6.68,6.73,6.49,6.49,0,0,1-6.68-6.73,6.51,6.51,0,0,1,6.76-6.88C343.3,41.77,346.06,44.62,346.06,48.65Zm-10.78,0c0,2.85,1.68,4.71,4.15,4.71s4.11-1.88,4.11-4.71-1.74-4.87-4.18-4.87S335.28,45.77,335.28,48.65Z" transform="translate(-22.32 -22.32)"/><path class="cls-2" d="M352.82,50c.28.81.69,2.24.92,3.13h.05c.25-.89.71-2.37,1-3.13l2.65-7.93h2.45l-4.77,13h-2.86l-4.69-13h2.63Z" transform="translate(-22.32 -22.32)"/><path class="cls-2" d="M362.77,42.86a8.52,8.52,0,0,1,4.33-1.09c3.8,0,5.23,2.19,5.23,5.15,0,1.65-.05,3.69-.05,4.23,0,1.42.05,3,.15,3.92h-2.17c0-.2-.05-.69-.05-1.07s0-.79.05-1.15h-.05a4.63,4.63,0,0,1-4.33,2.4c-2.75,0-4.54-1.53-4.54-3.93,0-2.7,2.45-4.23,6.83-4.23.54,0,1.25,0,1.84.08v-.1c0-2.19-1.09-3.32-3.31-3.32A6.83,6.83,0,0,0,362.92,45Zm5.94,6c-3.21,0-4.79.76-4.79,2.49,0,1.28,1,2,2.47,2a3.5,3.5,0,0,0,3.24-1.91,6.16,6.16,0,0,0,.41-2.57C369.75,48.85,369.3,48.83,368.71,48.83Z" transform="translate(-22.32 -22.32)"/><path class="cls-2" d="M380.22,42.15h3.49v1.91h-3.49v5.71c0,2.06.28,3.49,2.24,3.49a3.22,3.22,0,0,0,1.4-.31l.08,1.92a5.87,5.87,0,0,1-2.07.36c-3.29,0-4.05-2-4.05-4.8V44.06h-3V42.15h3V39.09l2.4-.82Z" transform="translate(-22.32 -22.32)"/><path class="cls-2" d="M389.52,39.73h-2.71V37.05h2.71Zm-.13,15.34h-2.45v-13h2.45Z" transform="translate(-22.32 -22.32)"/><path class="cls-2" d="M406.38,48.65a6.41,6.41,0,0,1-6.68,6.73A6.49,6.49,0,0,1,393,48.65a6.51,6.51,0,0,1,6.76-6.88C403.63,41.77,406.38,44.62,406.38,48.65Zm-10.78,0c0,2.85,1.68,4.71,4.15,4.71s4.11-1.88,4.11-4.71-1.74-4.87-4.18-4.87S395.6,45.77,395.6,48.65Z" transform="translate(-22.32 -22.32)"/><path class="cls-2" d="M412.4,44.16a5,5,0,0,1,4.33-2.39c3.67,0,4.85,2.42,4.85,5.86v7.44h-2.42V48.65c0-2.55-.26-4.87-3-4.87A3.66,3.66,0,0,0,413,45.64a6.33,6.33,0,0,0-.61,3.21v6.22H410V45.92c0-1.38,0-2.75-.12-3.85h2.37c.05.56.1,1.4.1,2.09Z" transform="translate(-22.32 -22.32)"/><path class="cls-2" d="M189.52,73.29V105h.29L215,73.29h15.09L204.5,105.62l33.11,36.3h-17l-31.1-33.7v33.7H176.25V73.29Z" transform="translate(-22.32 -22.32)"/><path class="cls-2" d="M255.83,73.29l40.78,47.9V73.29h13v68.63h-11.4l-41-48.68v48.68h-13V73.29Z" transform="translate(-22.32 -22.32)"/><path class="cls-2" d="M337.78,73.29v68.63H324.51V73.29Z" transform="translate(-22.32 -22.32)"/><path class="cls-2" d="M364.64,73.29l22.55,27.07,22.55-27.07h11.84v68.63H408.31V93.73h-.39L388.07,117.9H386.2L366.36,93.73H366v48.19H352.7V73.29Z" transform="translate(-22.32 -22.32)"/><path class="cls-2" d="M480.74,73.29V83.66h-31.1v18h29.77v10.37H449.64v19.5h31.79v10.37H436.38V73.29Z" transform="translate(-22.32 -22.32)"/><text x="-22.32" y="-22.32"/></svg>