<svg xmlns="http://www.w3.org/2000/svg" width="910" height="237" viewBox="0 0 910 236.999" shape-rendering="geometricPrecision"><path fill="#FFD800" d="M136.837 0L0 236.999h273.663L136.837 0zm-31.158 208.718v-90.484l2.807-12.56 78.366 45.229 9.476 8.72-78.373 45.249-12.276 3.846zm3.988-108.324l3.796-16.972 55.982 51.475-59.778-34.503zm-9.145 109.942l-16.594 5.198 16.594-74.219v69.021zm99.788-47.054l12.803 11.772-72.587 22.743 59.784-34.515zm-84.476-86.444l5.381-14.248 63.484 77.572-68.865-63.324zM77.042 216.773l-15.032 2.458 35.443-93.772-20.411 91.314zm140.585-36.374l9.645 11.781-98.927 16.194 89.282-27.975zM123.411 53.048l5.594-11.4 67.77 101.046-73.364-89.646zM52.647 222.102l-12.67.855L93.61 113.734 52.647 222.102zm181.792-23.247l7.072 10.545-121.396 8.167 114.324-18.712zm-29.317-59.924L131.726 29.489l5.111-8.846 68.285 118.288zM86.166 108.4L28.089 226.681H17.875L86.166 108.4zm32.992 118.281l131.519-8.848 5.11 8.848H119.158z"/><path fill="#7D7D7D" d="M339.04 47.06c0 11.365-6.619 18.438-17.072 18.438-10.305 0-17.073-7.123-17.073-18.183 0-11.215 6.869-18.284 17.525-18.284 9.953.001 16.62 7.173 16.62 18.029zm-28.691.101c0 8.588 4.648 14.195 11.666 14.195 6.869 0 11.569-5.655 11.569-14.093 0-8.688-4.497-14.19-11.569-14.19-6.918 0-11.666 5.757-11.666 14.088zm36.623-.404c0-2.728-.047-5.456-.25-7.624h4.594c.101 1.057.202 2.827.202 4.14h.101c2.02-3.233 4.95-4.748 8.842-4.748 6.615 0 11.059 5.254 11.059 13.132 0 8.184-4.492 13.84-11.159 13.84-3.993 0-7.071-2.12-8.641-4.95h-.101c.101 1.01.154 4.85.154 6.365v8.587h-4.801V46.757zm4.748 5.306c0 5.153 3.334 9.444 7.577 9.444 4.445 0 7.226-4.244 7.226-9.444 0-5.709-2.829-9.548-7.226-9.548-4.242-.001-7.577 4.194-7.577 9.548zm30.444 1.112c.205 5.201 3.739 8.284 8.945 8.284 2.978 0 5.2-.706 7.524-1.919l.153 4.392c-2.322 1.063-4.902 1.567-7.979 1.567-8.588 0-13.489-5.206-13.489-13.69 0-8.129 4.949-13.282 12.276-13.282 6.767 0 11.06 4.089 11.06 12.778 0 .504-.049 1.312-.101 1.87h-18.389zm13.794-3.69c0-4.95-2.729-7.323-6.52-7.323-3.785 0-6.768 2.729-7.172 7.323h13.692zm16.695-6.211c1.92-2.929 4.848-4.748 8.586-4.748 7.273 0 9.599 4.797 9.599 11.619v14.748h-4.803V52.165c0-5.051-.503-9.651-5.961-9.651-2.523 0-4.849 1.467-6.162 3.69-.809 1.415-1.212 3.333-1.212 6.365v12.323h-4.795V46.757c0-2.728-.054-5.456-.255-7.624h4.699c.101 1.111.201 2.775.201 4.14h.103zm54.768-12.478a11.027 11.027 0 0 0-2.475-.304c-3.182 0-4.345 1.872-4.345 6.265v2.525h6.922v3.79h-6.922v21.821h-4.749v-21.82h-6.107v-3.79h6.107v-2.425c0-6.164 2.121-10.353 8.385-10.353 1.265 0 2.276.101 3.536.404l-.352 3.887zm30.075 21.369c0 7.879-5.456 13.334-13.241 13.334-7.625 0-13.233-5.556-13.233-13.334 0-8.083 5.508-13.639 13.388-13.639 7.631 0 13.086 5.659 13.086 13.639zm-21.37 0c0 5.659 3.334 9.341 8.232 9.341 4.699 0 8.134-3.737 8.134-9.341 0-5.759-3.435-9.651-8.283-9.651-4.701 0-8.083 3.939-8.083 9.651zm33.349-8.689c1.467-2.929 3.94-4.95 7.226-4.95 1.008 0 1.819.101 2.471.351v4.498c-.606-.255-1.463-.404-2.574-.404-4.445 0-7.123 3.686-7.123 10.253v11.669h-4.797V46.757c0-2.728-.052-5.456-.255-7.624h4.749c.155 1.312.201 3.029.201 4.343h.102zm34.51 21.417h-5.152V29.638h5.152v35.255zM558.3 43.274c1.92-2.929 4.849-4.748 8.586-4.748 7.274 0 9.597 4.797 9.597 11.619v14.748h-4.801V52.165c0-5.051-.505-9.651-5.96-9.651-2.523 0-4.848 1.467-6.162 3.69-.807 1.415-1.213 3.333-1.213 6.365v12.323h-4.793V46.757c0-2.728-.054-5.456-.257-7.624h4.701c.103 1.111.201 2.775.201 4.14h.101zm31.577 0c1.92-2.929 4.848-4.748 8.586-4.748 7.274 0 9.599 4.797 9.599 11.619v14.748h-4.797V52.165c0-5.051-.505-9.651-5.958-9.651-2.527 0-4.852 1.467-6.164 3.69-.809 1.415-1.211 3.333-1.211 6.365v12.323h-4.801V46.757c0-2.728-.048-5.456-.25-7.624h4.695c.099 1.111.201 2.775.201 4.14h.1zm51.648 8.891c0 7.879-5.455 13.334-13.235 13.334-7.623 0-13.233-5.556-13.233-13.334 0-8.083 5.509-13.639 13.388-13.639 7.625 0 13.08 5.659 13.08 13.639zm-21.362 0c0 5.659 3.335 9.341 8.231 9.341 4.7 0 8.135-3.737 8.135-9.341 0-5.759-3.435-9.651-8.284-9.651-4.701 0-8.082 3.939-8.082 9.651zm34.766 2.675c.553 1.616 1.362 4.443 1.819 6.214h.101a186.44 186.44 0 0 1 1.92-6.214l5.254-15.706h4.848l-9.447 25.759h-5.657l-9.295-25.759h5.206l5.251 15.706zm19.715-14.145c2.425-1.461 5.556-2.169 8.588-2.169 7.528 0 10.357 4.345 10.357 10.204 0 3.28-.103 7.321-.103 8.383 0 2.829.103 5.909.304 7.78h-4.296a22.95 22.95 0 0 1-.1-2.121c0-.66.052-1.569.1-2.276h-.1c-1.767 3.083-4.594 4.749-8.586 4.749-5.455 0-8.991-3.033-8.991-7.78 0-5.355 4.848-8.385 13.537-8.385 1.064 0 2.477.053 3.636.155v-.203c0-4.343-2.169-6.566-6.566-6.566-2.626 0-5.403 1.01-7.476 2.473l-.304-4.244zm11.774 11.821c-6.365 0-9.498 1.515-9.498 4.95 0 2.525 1.968 4.041 4.898 4.041 2.882 0 5.304-1.462 6.415-3.785.553-1.165.811-2.829.811-5.105a31.952 31.952 0 0 0-2.626-.101zm22.797-13.233h6.918v3.79h-6.918v11.314c0 4.088.553 6.917 4.445 6.917 1.012 0 1.865-.202 2.777-.607l.153 3.792c-1.163.451-2.626.707-4.093.707-6.514 0-8.029-3.94-8.029-9.496V43.072h-5.912v-3.79h5.912v-6.063l4.747-1.616v7.68zm18.429-4.798h-5.353V29.18h5.353v5.305zm-.25 30.408h-4.849V39.134h4.849v25.759zm33.667-12.728c0 7.879-5.455 13.334-13.233 13.334-7.625 0-13.235-5.556-13.235-13.334 0-8.083 5.508-13.639 13.388-13.639 7.625 0 13.08 5.659 13.08 13.639zm-21.363 0c0 5.659 3.333 9.341 8.229 9.341 4.702 0 8.137-3.737 8.137-9.341 0-5.759-3.435-9.651-8.284-9.651-4.701 0-8.082 3.939-8.082 9.651zm33.295-8.891c1.918-2.929 4.848-4.748 8.586-4.748 7.272 0 9.595 4.797 9.595 11.619v14.748h-4.793V52.165c0-5.051-.505-9.651-5.962-9.651-2.524 0-4.848 1.467-6.162 3.69-.807 1.415-1.211 3.333-1.211 6.365v12.323h-4.801V46.757c0-2.728-.048-5.456-.25-7.624h4.693c.103 1.111.203 2.775.203 4.14h.102zm-441.679 57.721v62.792h.584l49.847-62.792h29.891l-50.628 64.057 65.618 71.947h-33.684l-61.628-66.784v66.784h-26.287V100.995h26.287zm131.408 0l80.806 94.924v-94.924h25.703v136.004h-22.588l-81.296-96.478v96.478h-25.701V100.995h23.076zm162.391 0v136.004h-26.288V100.995h26.288zm53.228 0l44.69 53.642 44.682-53.642h23.462v136.004h-26.286v-95.506h-.776l-39.329 47.9h-3.706l-39.325-47.9h-.78v95.506h-26.288V100.995h23.656zm230.074 0v20.542h-61.628v35.724h59v20.548h-59v38.646h62.995v20.544h-89.277V100.995h87.91zM910 40.761c0 1.64-.306 3.175-.915 4.604a11.53 11.53 0 0 1-2.504 3.719c-1.06 1.051-2.311 1.88-3.75 2.491-1.44.61-2.978.914-4.617.914-1.701 0-3.267-.295-4.695-.885-1.43-.589-2.661-1.399-3.69-2.429-1.03-1.03-1.835-2.255-2.413-3.675-.581-1.419-.871-2.979-.871-4.679 0-1.639.304-3.169.915-4.589a11.622 11.622 0 0 1 2.504-3.705 11.67 11.67 0 0 1 3.735-2.474c1.428-.6 2.974-.9 4.635-.9 1.699 0 3.263.29 4.693.87 1.43.581 2.659 1.385 3.69 2.415 1.03 1.03 1.835 2.255 2.415 3.674.578 1.42.868 2.969.868 4.649zm-2.7.18c0-1.419-.224-2.709-.675-3.869-.449-1.159-1.074-2.155-1.875-2.985a8.068 8.068 0 0 0-2.849-1.904c-1.099-.439-2.289-.66-3.569-.66-1.382 0-2.626.24-3.735.72a8.621 8.621 0 0 0-2.864 1.98 8.785 8.785 0 0 0-1.846 2.924 9.758 9.758 0 0 0-.644 3.555c0 1.4.224 2.68.675 3.839.449 1.16 1.074 2.155 1.873 2.984a8.243 8.243 0 0 0 2.851 1.92c1.099.451 2.289.675 3.57.675 1.378 0 2.628-.245 3.748-.735s2.075-1.15 2.864-1.98a8.794 8.794 0 0 0 1.831-2.909 9.738 9.738 0 0 0 .645-3.555zm-3.539 5.489c0 .08-.015.155-.045.225-.031.07-.105.12-.224.149-.12.031-.29.056-.511.075-.221.02-.521.03-.9.03-.341 0-.615-.01-.824-.03a1.931 1.931 0 0 1-.511-.105.67.67 0 0 1-.3-.211.994.994 0 0 1-.164-.374l-.629-2.07c-.24-.739-.526-1.255-.855-1.544-.331-.29-.824-.435-1.486-.435h-.809v4.199c0 .221-.085.371-.255.45-.172.082-.567.121-1.186.121s-1.03-.04-1.231-.12c-.199-.079-.298-.229-.298-.45V35.572c0-.439.108-.785.329-1.034.221-.251.55-.375.991-.375h3.449c.799 0 1.504.071 2.115.21.61.14 1.128.36 1.56.66.43.3.755.674.973 1.125.221.449.331.985.331 1.604 0 .96-.259 1.705-.78 2.235-.521.529-1.219.905-2.1 1.124.48.161.931.431 1.349.81.422.38.782.95 1.08 1.71l.72 1.92c.141.46.211.749.211.869zm-3.72-8.308c0-.22-.029-.43-.091-.63a1.116 1.116 0 0 0-.344-.525 1.736 1.736 0 0 0-.673-.344 3.942 3.942 0 0 0-1.051-.12h-1.38v3.36h1.32c.84 0 1.42-.16 1.74-.48.319-.321.479-.741.479-1.261z"/></svg>