<?xml version="1.0" encoding="UTF-8"?>
<svg xmlns="http://www.w3.org/2000/svg" height="329" width="454" viewBox="0 0 454 329" >
<g transform="translate(1.086609,119.656)">
	<!-- Background -->
	<rect height="326.89999" width="451.89999" style="fill:#FDFEFE;stroke:#D5D4D4;stroke-width:1" x="0" y="-118.6"/>
	<!-- Early access banner -->
	<g transform="translate(332,-123)">
		<path d="M125.5 124V0H1.5L125.5 124Z" fill="#FFD800" stroke="#C0C4C6" stroke-opacity="0.5"/>
		<path d="M51.5568 25.9403L50.7323 26.7648L47.5296 23.5621L48.3541 22.7376L51.5568 25.9403ZM53.8563 17.8237L47.8238 23.8562L46.7838 22.8163L52.8163 16.7838L53.8563 17.8237ZM53.8273 22.8329L53.0152 23.6449L50.231 20.8607L51.043 20.0486L53.8273 22.8329ZM56.7441 20.7115L55.9155 21.5402L52.7335 18.3582L53.5621 17.5296L56.7441 20.7115Z" fill="#3E3A39"/>
		<path d="M59.1596 24.7346L52.1286 28.161L51.0389 27.0714L59.3419 23.3093L60.0379 24.0054L59.1596 24.7346ZM55.439 31.4714L58.8613 24.4363L59.5863 23.5538L60.2865 24.254L56.5328 32.5652L55.439 31.4714ZM57.5893 29.1471L56.7648 29.9716L53.4834 26.6902L54.3079 25.8657L57.5893 29.1471Z" fill="#3E3A39"/>
		<path d="M63.2406 27.2081L65.3744 29.3418C65.8329 29.8003 66.1547 30.2602 66.3398 30.7215C66.5248 31.1828 66.5676 31.6344 66.4682 32.0763C66.3743 32.5183 66.1298 32.9367 65.7348 33.3317C65.4338 33.6328 65.1134 33.8427 64.7736 33.9615C64.4339 34.0803 64.0845 34.1176 63.7254 34.0734C63.3691 34.0264 63.0086 33.9063 62.644 33.7129L62.1758 33.5513L60.2575 31.633L61.0737 30.8002L62.5114 32.2379C62.76 32.4865 63.0114 32.6495 63.2655 32.7268C63.5196 32.8042 63.7641 32.8083 63.9988 32.7393C64.2391 32.6702 64.456 32.539 64.6493 32.3456C64.8592 32.1357 65.0001 31.912 65.0719 31.6745C65.1493 31.4369 65.1451 31.1925 65.0595 30.9411C64.9766 30.687 64.8054 30.4301 64.5457 30.1705L63.4519 29.0767L58.2481 34.2805L57.2081 33.2406L63.2406 27.2081ZM60.6511 36.6836L61.9438 32.557L63.0376 33.6425L61.8154 37.7401L61.7615 37.794L60.6511 36.6836Z" fill="#3E3A39"/>
		<path d="M67.156 41.5394L66.3315 42.3639L63.3028 39.3352L64.1273 38.5107L67.156 41.5394ZM69.6253 33.5928L63.5928 39.6253L62.5529 38.5853L68.5854 32.5528L69.6253 33.5928Z" fill="#3E3A39"/>
		<path d="M72.6913 36.6587L71.2122 40.9387L75.4921 39.4595L76.6439 40.6113L70.802 42.3929L68.5812 44.6137L67.533 43.5654L69.7538 41.3447L71.5353 35.5028L72.6913 36.6587Z" fill="#3E3A39"/>
		<path d="M80.9611 46.5361L73.9301 49.9626L72.8404 48.8729L81.1434 45.1109L81.8395 45.8069L80.9611 46.5361ZM77.2405 53.273L80.6628 46.2378L81.3879 45.3553L82.0881 46.0555L78.3343 54.3668L77.2405 53.273ZM79.3908 50.9486L78.5663 51.7731L75.2849 48.4917L76.1094 47.6672L79.3908 50.9486Z" fill="#3E3A39"/>
		<path d="M84.4704 56.5751L85.5062 57.6109C85.0781 57.9727 84.6154 58.2144 84.1182 58.336C83.6238 58.4547 83.1183 58.4326 82.6018 58.2697C82.0853 58.1067 81.584 57.7822 81.0978 57.296C80.725 56.9231 80.4556 56.5212 80.2899 56.0904C80.127 55.6567 80.062 55.2106 80.0952 54.7521C80.1311 54.2908 80.2678 53.8282 80.5054 53.3641C80.7457 52.9028 81.0827 52.4554 81.5163 52.0217L82.0176 51.5204C82.4513 51.0867 82.9001 50.7511 83.3642 50.5136C83.831 50.2788 84.2964 50.1449 84.7604 50.1117C85.2272 50.0758 85.6775 50.1421 86.1111 50.3106C86.5475 50.4818 86.955 50.7567 87.3334 51.1351C87.814 51.6157 88.1316 52.1101 88.2863 52.6183C88.441 53.1266 88.4534 53.6279 88.3236 54.1223C88.1965 54.6195 87.9521 55.0905 87.5902 55.5352L86.5544 54.4994C86.7865 54.2121 86.948 53.929 87.0392 53.65C87.1331 53.3738 87.1386 53.0976 87.0558 52.8214C86.9757 52.5424 86.7906 52.2579 86.5006 51.9679C86.263 51.7303 86.0117 51.5674 85.7465 51.479C85.4814 51.3906 85.2038 51.3726 84.9137 51.4251C84.6237 51.4776 84.3226 51.5991 84.0105 51.7897C83.7039 51.9803 83.3904 52.2358 83.07 52.5562L82.5604 53.0658C82.2566 53.3696 82.0066 53.6721 81.8105 53.9732C81.6199 54.2742 81.4914 54.5684 81.4252 54.8557C81.3616 55.1457 81.3685 55.4261 81.4459 55.6967C81.5232 55.9674 81.6834 56.2243 81.9265 56.4674C82.222 56.7629 82.5079 56.9549 82.7841 57.0433C83.0631 57.1344 83.3393 57.1372 83.6128 57.0516C83.8917 56.9659 84.1776 56.8071 84.4704 56.5751Z" fill="#3E3A39"/>
		<path d="M90.014 62.1187L91.0498 63.1545C90.6217 63.5164 90.159 63.758 89.6618 63.8796C89.1674 63.9983 88.662 63.9762 88.1454 63.8133C87.6289 63.6503 87.1276 63.3258 86.6415 62.8396C86.2686 62.4667 85.9993 62.0649 85.8335 61.634C85.6706 61.2003 85.6057 60.7542 85.6388 60.2957C85.6747 59.8344 85.8114 59.3718 86.049 58.9077C86.2893 58.4465 86.6263 57.999 87.0599 57.5653L87.5612 57.064C87.9949 56.6303 88.4437 56.2947 88.9078 56.0572C89.3746 55.8224 89.84 55.6885 90.304 55.6553C90.7708 55.6194 91.2211 55.6857 91.6547 55.8542C92.0911 56.0254 92.4986 56.3003 92.877 56.6787C93.3576 57.1593 93.6752 57.6537 93.8299 58.162C93.9846 58.6702 93.997 59.1715 93.8672 59.6659C93.7401 60.1631 93.4957 60.6341 93.1339 61.0788L92.0981 60.043C92.3301 59.7557 92.4917 59.4726 92.5828 59.1936C92.6767 58.9174 92.6822 58.6412 92.5994 58.365C92.5193 58.086 92.3342 57.8015 92.0442 57.5115C91.8066 57.2739 91.5553 57.111 91.2901 57.0226C91.025 56.9342 90.7474 56.9162 90.4573 56.9687C90.1673 57.0212 89.8662 57.1427 89.5541 57.3333C89.2475 57.5239 88.934 57.7794 88.6136 58.0998L88.104 58.6094C87.8002 58.9133 87.5502 59.2157 87.3541 59.5168C87.1635 59.8179 87.0351 60.112 86.9688 60.3993C86.9052 60.6893 86.9121 60.9697 86.9895 61.2404C87.0668 61.511 87.227 61.7679 87.4701 62.011C87.7656 62.3065 88.0515 62.4985 88.3277 62.5869C88.6067 62.678 88.8829 62.6808 89.1564 62.5952C89.4354 62.5096 89.7212 62.3507 90.014 62.1187Z" fill="#3E3A39"/>
		<path d="M94.8036 69.187L93.9791 70.0115L90.7764 66.8088L91.6009 65.9843L94.8036 69.187ZM97.103 61.0705L91.0705 67.103L90.0306 66.063L96.0631 60.0305L97.103 61.0705ZM97.074 66.0796L96.262 66.8917L93.4777 64.1074L94.2898 63.2954L97.074 66.0796ZM99.9909 63.9583L99.1622 64.7869L95.9802 61.605L96.8089 60.7763L99.9909 63.9583Z" fill="#3E3A39"/>
		<path d="M99.5558 72.4809C99.6801 72.3566 99.7713 72.2267 99.8293 72.0914C99.89 71.9588 99.9135 71.8055 99.8997 71.6315C99.8859 71.4575 99.8307 71.2476 99.734 71.0017C99.6428 70.7559 99.5061 70.4617 99.3238 70.1192C99.1249 69.7436 98.9578 69.3804 98.8225 69.0296C98.6927 68.6788 98.6098 68.3418 98.5739 68.0186C98.5407 67.6927 98.5684 67.3861 98.6567 67.0988C98.7479 66.8088 98.9178 66.5395 99.1664 66.2909C99.4122 66.0451 99.687 65.8725 99.9909 65.773C100.297 65.6763 100.619 65.6501 100.956 65.6943C101.299 65.7385 101.641 65.8517 101.984 66.034C102.329 66.2136 102.66 66.4622 102.978 66.7798C103.426 67.2273 103.728 67.6955 103.885 68.1844C104.046 68.676 104.073 69.1483 103.968 69.6013C103.866 70.0571 103.647 70.4535 103.31 70.7904L102.278 69.7588C102.477 69.5599 102.609 69.3417 102.676 69.1042C102.747 68.8666 102.742 68.618 102.659 68.3584C102.579 68.1015 102.409 67.8432 102.149 67.5836C101.904 67.3378 101.662 67.1707 101.424 67.0823C101.187 66.9939 100.965 66.9732 100.757 67.0201C100.55 67.0671 100.367 67.1707 100.206 67.3309C100.093 67.4441 100.016 67.5739 99.9743 67.7203C99.9356 67.864 99.9301 68.0297 99.9577 68.2175C99.9881 68.4026 100.05 68.6111 100.144 68.8431C100.238 69.0752 100.364 69.3334 100.521 69.6179C100.756 70.0516 100.937 70.4535 101.064 70.8236C101.194 71.1909 101.266 71.5335 101.279 71.8511C101.293 72.1687 101.245 72.4657 101.134 72.7419C101.027 73.0153 100.851 73.2736 100.608 73.5167C100.354 73.7708 100.074 73.9489 99.7671 74.0511C99.4633 74.1506 99.1443 74.1768 98.81 74.1299C98.4813 74.0829 98.1457 73.9655 97.8032 73.7777C97.4663 73.5899 97.1362 73.3344 96.813 73.0112C96.523 72.7212 96.2758 72.3966 96.0714 72.0375C95.8697 71.6812 95.733 71.3097 95.6612 70.923C95.5922 70.5336 95.6087 70.1524 95.7109 69.7795C95.8159 69.4038 96.0286 69.0558 96.349 68.7354L97.3889 69.7754C97.1928 69.9715 97.0588 70.1717 96.987 70.3761C96.918 70.5833 96.9 70.7918 96.9332 71.0017C96.9691 71.2089 97.0464 71.4133 97.1652 71.6149C97.2867 71.8193 97.44 72.0141 97.6251 72.1991C97.8682 72.4422 98.1057 72.6107 98.3377 72.7046C98.5725 72.8013 98.7935 72.8289 99.0006 72.7875C99.2078 72.746 99.3929 72.6438 99.5558 72.4809Z" fill="#3E3A39"/>
		<path d="M104.693 77.6184C104.818 77.4941 104.909 77.3643 104.967 77.229C105.028 77.0964 105.051 76.9431 105.037 76.7691C105.023 76.5951 104.968 76.3851 104.872 76.1393C104.78 75.8935 104.644 75.5993 104.461 75.2568C104.262 74.8812 104.095 74.5179 103.96 74.1671C103.83 73.8164 103.747 73.4794 103.711 73.1562C103.678 72.8303 103.706 72.5237 103.794 72.2364C103.885 71.9464 104.055 71.6771 104.304 71.4285C104.55 71.1827 104.825 71.01 105.128 70.9106C105.435 70.8139 105.757 70.7877 106.094 70.8319C106.436 70.8761 106.779 70.9893 107.121 71.1716C107.467 71.3512 107.798 71.5997 108.116 71.9174C108.563 72.3649 108.866 72.833 109.023 73.3219C109.183 73.8136 109.211 74.2859 109.106 74.7389C109.004 75.1947 108.784 75.591 108.447 75.928L107.415 74.8964C107.614 74.6975 107.747 74.4793 107.813 74.2417C107.885 74.0042 107.88 73.7556 107.797 73.4959C107.717 73.2391 107.547 72.9808 107.287 72.7212C107.041 72.4753 106.8 72.3082 106.562 72.2198C106.324 72.1315 106.102 72.1107 105.895 72.1577C105.688 72.2047 105.504 72.3082 105.344 72.4684C105.231 72.5817 105.153 72.7115 105.112 72.8579C105.073 73.0015 105.068 73.1673 105.095 73.3551C105.126 73.5401 105.188 73.7487 105.282 73.9807C105.376 74.2127 105.501 74.471 105.659 74.7555C105.894 75.1891 106.074 75.591 106.202 75.9612C106.331 76.3285 106.403 76.671 106.417 76.9887C106.431 77.3063 106.382 77.6032 106.272 77.8795C106.164 78.1529 105.989 78.4112 105.746 78.6542C105.492 78.9084 105.211 79.0865 104.905 79.1887C104.601 79.2881 104.282 79.3144 103.948 79.2674C103.619 79.2205 103.283 79.1031 102.941 78.9153C102.604 78.7274 102.274 78.4719 101.951 78.1488C101.661 77.8587 101.413 77.5342 101.209 77.1751C101.007 76.8188 100.871 76.4473 100.799 76.0606C100.73 75.6711 100.746 75.29 100.848 74.9171C100.953 74.5414 101.166 74.1934 101.487 73.873L102.526 74.9129C102.33 75.109 102.196 75.3093 102.125 75.5137C102.056 75.7208 102.038 75.9294 102.071 76.1393C102.107 76.3465 102.184 76.5509 102.303 76.7525C102.424 76.9569 102.578 77.1516 102.763 77.3367C103.006 77.5798 103.243 77.7483 103.475 77.8422C103.71 77.9388 103.931 77.9665 104.138 77.925C104.345 77.8836 104.53 77.7814 104.693 77.6184Z" fill="#3E3A39"/>
	</g>
	<!-- Copyright -->
	<text style="font-size:9px;fill:#6E6E6E;font-family:sans-serif;" x="43" y="201">© KNIME AG, Zurich, Switzerland · http://www.knime.com/ · contact@knime.com</text>
	<!-- Version text -->
	<text id="KNIME-Version" style="font-size:18px;text-align:end;text-anchor:end;fill:#3E3A39;font-family:sans-serif;font-weight:bold" x="358" y="44.8442">
		<tspan style="text-align:end;text-anchor:end">Version 5.0.0</tspan>
	</text>
	<!-- Nightly text -->
	<text id="KNIME-Builddate" style="font-size:11px;text-align:end;text-anchor:end;fill:#6E6E6E;font-family:sans-serif" x="358" y="60.916702">
		<tspan style="text-align:end;text-anchor:end">(Nightly build)</tspan>
	</text>
	<!-- Logo -->
	<g transform="matrix(0.60,0,0,0.60,75,-100)">
		<!-- Figurative mark -->
		<path class="yellow" d="m 91.4,22.3 -69.1,119.6 138.1,0 -69,-119.6 z m -15.7,105.4 0,-45.7 1.4,-6.3 39.5,22.8 4.8,4.4 -39.5,22.8 -6.2,2 z m 2,-54.7 1.9,-8.6 28.3,26 L 77.7,73 Z m -4.6,55.5 -8.4,2.6 8.4,-37.5 0,34.9 z m 50.3,-23.8 6.5,5.9 -36.6,11.5 30.1,-17.4 z M 80.8,61.1 83.5,53.9 115.5,93 80.8,61.1 Z m -19.6,70.6 -7.6,1.2 17.9,-47.3 -10.3,46.1 z m 70.9,-18.3 4.9,5.9 -49.9,8.2 45,-14.1 z m -47.5,-64.3 2.8,-5.8 34.2,51 -37,-45.2 z m -35.7,85.3 -6.4,0.4 27.1,-55.1 -20.7,54.7 z m 91.7,-11.7 3.6,5.3 -61.3,4.1 57.7,-9.4 z m -14.8,-30.3 -37,-55.2 2.6,-4.5 34.4,59.7 z M 65.8,77 36.5,136.7 31.3,136.7 65.8,77 Z m 16.7,59.7 66.4,-4.5 2.6,4.5 -69,0 z" />
		<g class="masala">
			<!-- Slogan Open for innovation -->
			<g>
				<path d="m 193.4,46.1 c 0,5.7 -3.3,9.3 -8.6,9.3 -5.2,0 -8.6,-3.6 -8.6,-9.2 0,-5.7 3.5,-9.2 8.8,-9.2 5,0 8.4,3.6 8.4,9.1 z m -14.5,0 c 0,4.3 2.3,7.2 5.9,7.2 3.5,0 5.8,-2.9 5.8,-7.1 0,-4.4 -2.3,-7.2 -5.8,-7.2 -3.5,0 -5.9,2.9 -5.9,7.1 z" />
				<path d="m 197.4,45.9 c 0,-1.4 0,-2.8 -0.1,-3.8 l 2.3,0 c 0.1,0.5 0.1,1.4 0.1,2.1 l 0.1,0 c 1,-1.6 2.5,-2.4 4.5,-2.4 3.3,0 5.6,2.7 5.6,6.6 0,4.1 -2.3,7 -5.6,7 -2,0 -3.6,-1.1 -4.4,-2.5 l -0.1,0 c 0.1,0.5 0.1,2.4 0.1,3.2 l 0,4.3 -2.4,0 0,-14.5 z m 2.4,2.7 c 0,2.6 1.7,4.8 3.8,4.8 2.2,0 3.6,-2.1 3.6,-4.8 0,-2.9 -1.4,-4.8 -3.6,-4.8 -2.1,0 -3.8,2.1 -3.8,4.8 z" />
				<path d="m 215.2,49.2 c 0.1,2.6 1.9,4.2 4.5,4.2 1.5,0 2.6,-0.4 3.8,-1 l 0.1,2.2 c -1.2,0.5 -2.5,0.8 -4,0.8 -4.3,0 -6.8,-2.6 -6.8,-6.9 0,-4.1 2.5,-6.7 6.2,-6.7 3.4,0 5.6,2.1 5.6,6.4 0,0.3 0,0.7 -0.1,0.9 l -9.3,0 z m 6.9,-1.9 c 0,-2.5 -1.4,-3.7 -3.3,-3.7 -1.9,0 -3.4,1.4 -3.6,3.7 l 6.9,0 z" />
				<path d="m 230.6,44.2 c 1,-1.5 2.4,-2.4 4.3,-2.4 3.7,0 4.8,2.4 4.8,5.9 l 0,7.4 -2.4,0 0,-6.4 c 0,-2.5 -0.3,-4.9 -3,-4.9 -1.3,0 -2.4,0.7 -3.1,1.9 -0.4,0.7 -0.6,1.7 -0.6,3.2 l 0,6.2 -2.4,0 0,-9.2 c 0,-1.4 0,-2.8 -0.1,-3.8 l 2.4,0 c 0,0.5 0,1.4 0.1,2.1 l 0,0 z" />
				<path d="m 258.2,37.9 c -0.4,-0.1 -0.9,-0.2 -1.2,-0.2 -1.6,0 -2.2,0.9 -2.2,3.2 l 0,1.3 3.5,0 0,1.9 -3.5,0 0,11 -2.4,0 0,-11 -3.1,0 0,-1.9 3.1,0 0,-1.2 c 0,-3.1 1.1,-5.2 4.2,-5.2 0.6,0 1.1,0.1 1.8,0.2 l -0.2,1.9 z" />
				<path d="m 273.4,48.6 c 0,4 -2.8,6.7 -6.7,6.7 -3.8,0 -6.7,-2.8 -6.7,-6.7 0,-4.1 2.8,-6.9 6.8,-6.9 3.8,0.1 6.6,2.9 6.6,6.9 z m -10.8,0 c 0,2.9 1.7,4.7 4.2,4.7 2.4,0 4.1,-1.9 4.1,-4.7 0,-2.9 -1.7,-4.9 -4.2,-4.9 -2.4,0.1 -4.1,2.1 -4.1,4.9 z" />
				<path d="m 279.4,44.3 c 0.7,-1.5 2,-2.5 3.6,-2.5 0.5,0 0.9,0.1 1.2,0.2 l 0,2.3 c -0.3,-0.1 -0.7,-0.2 -1.3,-0.2 -2.2,0 -3.6,1.9 -3.6,5.2 l 0,5.9 -2.3,0 0,-9.2 c 0,-1.4 0,-2.8 -0.1,-3.8 l 2.4,0 c 0,0.5 0.1,1.4 0.1,2.1 l 0,0 z" />
				<path d="m 296.8,55.1 -2.6,0 0,-17.8 2.6,0 0,17.8 z" />
				<path d="m 304.1,44.2 c 1,-1.5 2.4,-2.4 4.3,-2.4 3.7,0 4.8,2.4 4.8,5.9 l 0,7.4 -2.4,0 0,-6.4 c 0,-2.5 -0.3,-4.9 -3,-4.9 -1.3,0 -2.4,0.7 -3.1,1.9 -0.4,0.7 -0.6,1.7 -0.6,3.2 l 0,6.2 -2.4,0 0,-9.2 c 0,-1.4 0,-2.8 -0.1,-3.8 l 2.4,0 c 0,0.5 0,1.4 0.1,2.1 l 0,0 z" />
				<path d="m 320,44.2 c 1,-1.5 2.4,-2.4 4.3,-2.4 3.7,0 4.8,2.4 4.8,5.9 l 0,7.4 -2.4,0 0,-6.4 c 0,-2.5 -0.3,-4.9 -3,-4.9 -1.3,0 -2.4,0.7 -3.1,1.9 -0.4,0.7 -0.6,1.7 -0.6,3.2 l 0,6.2 -2.4,0 0,-9.2 c 0,-1.4 0,-2.8 -0.1,-3.8 l 2.4,0 c 0,0.5 0,1.4 0.1,2.1 l 0,0 z" />
				<path d="m 346.1,48.6 c 0,4 -2.8,6.7 -6.7,6.7 -3.8,0 -6.7,-2.8 -6.7,-6.7 0,-4.1 2.8,-6.9 6.8,-6.9 3.8,0.1 6.6,2.9 6.6,6.9 z m -10.8,0 c 0,2.9 1.7,4.7 4.2,4.7 2.4,0 4.1,-1.9 4.1,-4.7 0,-2.9 -1.7,-4.9 -4.2,-4.9 -2.4,0.1 -4.1,2.1 -4.1,4.9 z" />
				<path d="m 352.8,50 c 0.3,0.8 0.7,2.2 0.9,3.1 l 0.1,0 c 0.3,-0.9 0.7,-2.4 1,-3.1 l 2.7,-7.9 2.4,0 -4.8,13 -2.9,0 -4.7,-13 2.6,0 2.7,7.9 z" />
				<path d="m 362.8,42.9 c 1.2,-0.7 2.8,-1.1 4.3,-1.1 3.8,0 5.2,2.2 5.2,5.1 0,1.7 -0.1,3.7 -0.1,4.2 0,1.4 0.1,3 0.2,3.9 l -2.2,0 c 0,-0.2 -0.1,-0.7 -0.1,-1.1 0,-0.3 0,-0.8 0.1,-1.1 l -0.1,0 c -0.9,1.6 -2.3,2.4 -4.3,2.4 -2.8,0 -4.5,-1.5 -4.5,-3.9 0,-2.7 2.4,-4.2 6.8,-4.2 0.5,0 1.3,0 1.8,0.1 l 0,-0.1 c 0,-2.2 -1.1,-3.3 -3.3,-3.3 -1.3,0 -2.7,0.5 -3.8,1.2 l 0,-2.1 z m 5.9,5.9 c -3.2,0 -4.8,0.8 -4.8,2.5 0,1.3 1,2 2.5,2 1.5,0 2.7,-0.7 3.2,-1.9 0.3,-0.6 0.4,-1.4 0.4,-2.6 -0.2,0.1 -0.7,0 -1.3,0 z" />
				<path d="m 380.2,42.1 3.5,0 0,1.9 -3.5,0 0,5.7 c 0,2.1 0.3,3.5 2.2,3.5 0.5,0 0.9,-0.1 1.4,-0.3 l 0.1,1.9 c -0.6,0.2 -1.3,0.4 -2.1,0.4 -3.3,0 -4.1,-2 -4.1,-4.8 l 0,-6.4 -3,0 0,-1.9 3,0 0,-3.1 2.4,-0.8 0,3.9 z" />
				<path d="m 389.5,39.7 -2.7,0 0,-2.7 2.7,0 0,2.7 z m -0.1,15.4 -2.4,0 0,-13 2.4,0 0,13 z" />
				<path d="m 406.4,48.6 c 0,4 -2.8,6.7 -6.7,6.7 -3.8,0 -6.7,-2.8 -6.7,-6.7 0,-4.1 2.8,-6.9 6.8,-6.9 3.8,0.1 6.6,2.9 6.6,6.9 z m -10.8,0 c 0,2.9 1.7,4.7 4.2,4.7 2.4,0 4.1,-1.9 4.1,-4.7 0,-2.9 -1.7,-4.9 -4.2,-4.9 -2.4,0.1 -4.1,2.1 -4.1,4.9 z" />
				<path d="m 412.4,44.2 c 1,-1.5 2.4,-2.4 4.3,-2.4 3.7,0 4.8,2.4 4.8,5.9 l 0,7.4 -2.4,0 0,-6.4 c 0,-2.5 -0.3,-4.9 -3,-4.9 -1.3,0 -2.4,0.7 -3.1,1.9 -0.4,0.7 -0.6,1.7 -0.6,3.2 l 0,6.2 -2.4,0 0,-9.2 c 0,-1.4 0,-2.8 -0.1,-3.8 l 2.4,0 c 0,0.5 0,1.4 0.1,2.1 l 0,0 z" />
			</g>
			<!-- Letters KNIME -->
			<g>
				<path d="m 189.5,73.3 0,31.7 0.3,0 25.2,-31.7 15,0 -25.5,32.3 33.1,36.3 -17,0 -31.1,-33.7 0,33.7 -13.3,0 0,-68.6 13.3,0 z" />
				<path d="m 255.8,73.3 40.8,47.9 0,-47.9 13,0 0,68.6 -11.4,0 -41,-48.7 0,48.7 -13,0 0,-68.6 11.6,0 z" />
				<path d="m 337.8,73.3 0,68.6 -13.3,0 0,-68.6 13.3,0 z" />
				<path d="m 364.6,73.3 22.6,27.1 22.5,-27.1 11.8,0 0,68.6 -13.3,0 0,-48.2 -0.4,0 -19.8,24.2 -1.9,0 -19.8,-24.2 -0.3,0 0,48.2 -13.3,0 0,-68.6 11.9,0 z" />
				<path d="m 480.7,73.3 0,10.4 -31.1,0 0,18 29.8,0 0,10.4 -29.8,0 0,19.5 31.8,0 0,10.4 -45.1,0 0,-68.7 44.4,0 z" />
			</g>
		</g>
	</g>
</g>
<style type="text/css">
	.yellow {
		fill:#FFD800;
	}
	.masala {
		fill:#3E3A39;
	}
</style>
</svg>
