<?xml version="1.0" encoding="UTF-8"?><svg xmlns="http://www.w3.org/2000/svg" height="329" width="454">
<g transform="translate(1.086609,119.656)">
	<!-- Background -->
	<rect height="326.89999" style="fill:#FDFEFE;stroke:#D5D4D4;stroke-width:1" width="451.89999" x="0" y="-118.6"/>
	<!-- Copyright -->
	<text style="text-align:center; font-size:10px;fill:#6E6E6E;font-family:sans-serif;" text-anchor="middle" width="454" x="227" y="201">© KNIME AG, Zurich, Switzerland · www.knime.com · contact@knime.com</text>
	<!-- Version text -->
	<text id="KNIME-Version" style="font-size:18px;text-align:end;text-anchor:end;fill:#3E3A39;font-family:sans-serif;font-weight:bold" x="400" y="90">
		<tspan style="text-align:end;text-anchor:end">Version 5.8.3 LTS</tspan>
	</text>
	<!-- Nightly text -->
	<text id="KNIME-Builddate" style="font-size:11px;text-align:end;text-anchor:end;fill:#6E6E6E;font-family:sans-serif" x="400" y="105">
		<tspan style="text-align:end;text-anchor:end">(Build February 24, 2026)</tspan>
	</text>
	<!-- Logo -->
	<g transform="matrix(0.75,0,0,0.75,38,-70)">
		<!-- Figurative mark -->
		<path class="yellow" d="m 91.4,22.3 -69.1,119.6 138.1,0 -69,-119.6 z m -15.7,105.4 0,-45.7 1.4,-6.3 39.5,22.8 4.8,4.4 -39.5,22.8 -6.2,2 z m 2,-54.7 1.9,-8.6 28.3,26 L 77.7,73 Z m -4.6,55.5 -8.4,2.6 8.4,-37.5 0,34.9 z m 50.3,-23.8 6.5,5.9 -36.6,11.5 30.1,-17.4 z M 80.8,61.1 83.5,53.9 115.5,93 80.8,61.1 Z m -19.6,70.6 -7.6,1.2 17.9,-47.3 -10.3,46.1 z m 70.9,-18.3 4.9,5.9 -49.9,8.2 45,-14.1 z m -47.5,-64.3 2.8,-5.8 34.2,51 -37,-45.2 z m -35.7,85.3 -6.4,0.4 27.1,-55.1 -20.7,54.7 z m 91.7,-11.7 3.6,5.3 -61.3,4.1 57.7,-9.4 z m -14.8,-30.3 -37,-55.2 2.6,-4.5 34.4,59.7 z M 65.8,77 36.5,136.7 31.3,136.7 65.8,77 Z m 16.7,59.7 66.4,-4.5 2.6,4.5 -69,0 z"/>
		<g class="masala">
			<!-- Slogan Open for innovation -->
			<g>
				<path d="m 193.4,46.1 c 0,5.7 -3.3,9.3 -8.6,9.3 -5.2,0 -8.6,-3.6 -8.6,-9.2 0,-5.7 3.5,-9.2 8.8,-9.2 5,0 8.4,3.6 8.4,9.1 z m -14.5,0 c 0,4.3 2.3,7.2 5.9,7.2 3.5,0 5.8,-2.9 5.8,-7.1 0,-4.4 -2.3,-7.2 -5.8,-7.2 -3.5,0 -5.9,2.9 -5.9,7.1 z"/>
				<path d="m 197.4,45.9 c 0,-1.4 0,-2.8 -0.1,-3.8 l 2.3,0 c 0.1,0.5 0.1,1.4 0.1,2.1 l 0.1,0 c 1,-1.6 2.5,-2.4 4.5,-2.4 3.3,0 5.6,2.7 5.6,6.6 0,4.1 -2.3,7 -5.6,7 -2,0 -3.6,-1.1 -4.4,-2.5 l -0.1,0 c 0.1,0.5 0.1,2.4 0.1,3.2 l 0,4.3 -2.4,0 0,-14.5 z m 2.4,2.7 c 0,2.6 1.7,4.8 3.8,4.8 2.2,0 3.6,-2.1 3.6,-4.8 0,-2.9 -1.4,-4.8 -3.6,-4.8 -2.1,0 -3.8,2.1 -3.8,4.8 z"/>
				<path d="m 215.2,49.2 c 0.1,2.6 1.9,4.2 4.5,4.2 1.5,0 2.6,-0.4 3.8,-1 l 0.1,2.2 c -1.2,0.5 -2.5,0.8 -4,0.8 -4.3,0 -6.8,-2.6 -6.8,-6.9 0,-4.1 2.5,-6.7 6.2,-6.7 3.4,0 5.6,2.1 5.6,6.4 0,0.3 0,0.7 -0.1,0.9 l -9.3,0 z m 6.9,-1.9 c 0,-2.5 -1.4,-3.7 -3.3,-3.7 -1.9,0 -3.4,1.4 -3.6,3.7 l 6.9,0 z"/>
				<path d="m 230.6,44.2 c 1,-1.5 2.4,-2.4 4.3,-2.4 3.7,0 4.8,2.4 4.8,5.9 l 0,7.4 -2.4,0 0,-6.4 c 0,-2.5 -0.3,-4.9 -3,-4.9 -1.3,0 -2.4,0.7 -3.1,1.9 -0.4,0.7 -0.6,1.7 -0.6,3.2 l 0,6.2 -2.4,0 0,-9.2 c 0,-1.4 0,-2.8 -0.1,-3.8 l 2.4,0 c 0,0.5 0,1.4 0.1,2.1 l 0,0 z"/>
				<path d="m 258.2,37.9 c -0.4,-0.1 -0.9,-0.2 -1.2,-0.2 -1.6,0 -2.2,0.9 -2.2,3.2 l 0,1.3 3.5,0 0,1.9 -3.5,0 0,11 -2.4,0 0,-11 -3.1,0 0,-1.9 3.1,0 0,-1.2 c 0,-3.1 1.1,-5.2 4.2,-5.2 0.6,0 1.1,0.1 1.8,0.2 l -0.2,1.9 z"/>
				<path d="m 273.4,48.6 c 0,4 -2.8,6.7 -6.7,6.7 -3.8,0 -6.7,-2.8 -6.7,-6.7 0,-4.1 2.8,-6.9 6.8,-6.9 3.8,0.1 6.6,2.9 6.6,6.9 z m -10.8,0 c 0,2.9 1.7,4.7 4.2,4.7 2.4,0 4.1,-1.9 4.1,-4.7 0,-2.9 -1.7,-4.9 -4.2,-4.9 -2.4,0.1 -4.1,2.1 -4.1,4.9 z"/>
				<path d="m 279.4,44.3 c 0.7,-1.5 2,-2.5 3.6,-2.5 0.5,0 0.9,0.1 1.2,0.2 l 0,2.3 c -0.3,-0.1 -0.7,-0.2 -1.3,-0.2 -2.2,0 -3.6,1.9 -3.6,5.2 l 0,5.9 -2.3,0 0,-9.2 c 0,-1.4 0,-2.8 -0.1,-3.8 l 2.4,0 c 0,0.5 0.1,1.4 0.1,2.1 l 0,0 z"/>
				<path d="m 296.8,55.1 -2.6,0 0,-17.8 2.6,0 0,17.8 z"/>
				<path d="m 304.1,44.2 c 1,-1.5 2.4,-2.4 4.3,-2.4 3.7,0 4.8,2.4 4.8,5.9 l 0,7.4 -2.4,0 0,-6.4 c 0,-2.5 -0.3,-4.9 -3,-4.9 -1.3,0 -2.4,0.7 -3.1,1.9 -0.4,0.7 -0.6,1.7 -0.6,3.2 l 0,6.2 -2.4,0 0,-9.2 c 0,-1.4 0,-2.8 -0.1,-3.8 l 2.4,0 c 0,0.5 0,1.4 0.1,2.1 l 0,0 z"/>
				<path d="m 320,44.2 c 1,-1.5 2.4,-2.4 4.3,-2.4 3.7,0 4.8,2.4 4.8,5.9 l 0,7.4 -2.4,0 0,-6.4 c 0,-2.5 -0.3,-4.9 -3,-4.9 -1.3,0 -2.4,0.7 -3.1,1.9 -0.4,0.7 -0.6,1.7 -0.6,3.2 l 0,6.2 -2.4,0 0,-9.2 c 0,-1.4 0,-2.8 -0.1,-3.8 l 2.4,0 c 0,0.5 0,1.4 0.1,2.1 l 0,0 z"/>
				<path d="m 346.1,48.6 c 0,4 -2.8,6.7 -6.7,6.7 -3.8,0 -6.7,-2.8 -6.7,-6.7 0,-4.1 2.8,-6.9 6.8,-6.9 3.8,0.1 6.6,2.9 6.6,6.9 z m -10.8,0 c 0,2.9 1.7,4.7 4.2,4.7 2.4,0 4.1,-1.9 4.1,-4.7 0,-2.9 -1.7,-4.9 -4.2,-4.9 -2.4,0.1 -4.1,2.1 -4.1,4.9 z"/>
				<path d="m 352.8,50 c 0.3,0.8 0.7,2.2 0.9,3.1 l 0.1,0 c 0.3,-0.9 0.7,-2.4 1,-3.1 l 2.7,-7.9 2.4,0 -4.8,13 -2.9,0 -4.7,-13 2.6,0 2.7,7.9 z"/>
				<path d="m 362.8,42.9 c 1.2,-0.7 2.8,-1.1 4.3,-1.1 3.8,0 5.2,2.2 5.2,5.1 0,1.7 -0.1,3.7 -0.1,4.2 0,1.4 0.1,3 0.2,3.9 l -2.2,0 c 0,-0.2 -0.1,-0.7 -0.1,-1.1 0,-0.3 0,-0.8 0.1,-1.1 l -0.1,0 c -0.9,1.6 -2.3,2.4 -4.3,2.4 -2.8,0 -4.5,-1.5 -4.5,-3.9 0,-2.7 2.4,-4.2 6.8,-4.2 0.5,0 1.3,0 1.8,0.1 l 0,-0.1 c 0,-2.2 -1.1,-3.3 -3.3,-3.3 -1.3,0 -2.7,0.5 -3.8,1.2 l 0,-2.1 z m 5.9,5.9 c -3.2,0 -4.8,0.8 -4.8,2.5 0,1.3 1,2 2.5,2 1.5,0 2.7,-0.7 3.2,-1.9 0.3,-0.6 0.4,-1.4 0.4,-2.6 -0.2,0.1 -0.7,0 -1.3,0 z"/>
				<path d="m 380.2,42.1 3.5,0 0,1.9 -3.5,0 0,5.7 c 0,2.1 0.3,3.5 2.2,3.5 0.5,0 0.9,-0.1 1.4,-0.3 l 0.1,1.9 c -0.6,0.2 -1.3,0.4 -2.1,0.4 -3.3,0 -4.1,-2 -4.1,-4.8 l 0,-6.4 -3,0 0,-1.9 3,0 0,-3.1 2.4,-0.8 0,3.9 z"/>
				<path d="m 389.5,39.7 -2.7,0 0,-2.7 2.7,0 0,2.7 z m -0.1,15.4 -2.4,0 0,-13 2.4,0 0,13 z"/>
				<path d="m 406.4,48.6 c 0,4 -2.8,6.7 -6.7,6.7 -3.8,0 -6.7,-2.8 -6.7,-6.7 0,-4.1 2.8,-6.9 6.8,-6.9 3.8,0.1 6.6,2.9 6.6,6.9 z m -10.8,0 c 0,2.9 1.7,4.7 4.2,4.7 2.4,0 4.1,-1.9 4.1,-4.7 0,-2.9 -1.7,-4.9 -4.2,-4.9 -2.4,0.1 -4.1,2.1 -4.1,4.9 z"/>
				<path d="m 412.4,44.2 c 1,-1.5 2.4,-2.4 4.3,-2.4 3.7,0 4.8,2.4 4.8,5.9 l 0,7.4 -2.4,0 0,-6.4 c 0,-2.5 -0.3,-4.9 -3,-4.9 -1.3,0 -2.4,0.7 -3.1,1.9 -0.4,0.7 -0.6,1.7 -0.6,3.2 l 0,6.2 -2.4,0 0,-9.2 c 0,-1.4 0,-2.8 -0.1,-3.8 l 2.4,0 c 0,0.5 0,1.4 0.1,2.1 l 0,0 z"/>
			</g>
			<!-- Letters KNIME -->
			<g>
				<path d="m 189.5,73.3 0,31.7 0.3,0 25.2,-31.7 15,0 -25.5,32.3 33.1,36.3 -17,0 -31.1,-33.7 0,33.7 -13.3,0 0,-68.6 13.3,0 z"/>
				<path d="m 255.8,73.3 40.8,47.9 0,-47.9 13,0 0,68.6 -11.4,0 -41,-48.7 0,48.7 -13,0 0,-68.6 11.6,0 z"/>
				<path d="m 337.8,73.3 0,68.6 -13.3,0 0,-68.6 13.3,0 z"/>
				<path d="m 364.6,73.3 22.6,27.1 22.5,-27.1 11.8,0 0,68.6 -13.3,0 0,-48.2 -0.4,0 -19.8,24.2 -1.9,0 -19.8,-24.2 -0.3,0 0,48.2 -13.3,0 0,-68.6 11.9,0 z"/>
				<path d="m 480.7,73.3 0,10.4 -31.1,0 0,18 29.8,0 0,10.4 -29.8,0 0,19.5 31.8,0 0,10.4 -45.1,0 0,-68.7 44.4,0 z"/>
			</g>
		</g>
	</g>
</g>
<style type="text/css">
	.yellow {
		fill:#FFD800;
	}
	.masala {
		fill:#3E3A39;
	}
</style>
</svg>
